<?xml version="1.0" encoding="UTF-8" standalone="no"?>
<!-- Created with Inkscape (http://www.inkscape.org/) -->

<svg
   xmlns:dc="http://purl.org/dc/elements/1.1/"
   xmlns:cc="http://creativecommons.org/ns#"
   xmlns:rdf="http://www.w3.org/1999/02/22-rdf-syntax-ns#"
   xmlns:svg="http://www.w3.org/2000/svg"
   xmlns="http://www.w3.org/2000/svg"
   xmlns:sodipodi="http://sodipodi.sourceforge.net/DTD/sodipodi-0.dtd"
   xmlns:inkscape="http://www.inkscape.org/namespaces/inkscape"
   width="178.33615"
   height="66.789169"
   viewBox="0 0 47.184772 17.6713"
   version="1.1"
   id="svg5463"
   inkscape:version="0.92.0 r15299"
   sodipodi:docname="marstons brewery.svg">
  <defs
     id="defs5457" />
  <sodipodi:namedview
     id="base"
     pagecolor="#ffffff"
     bordercolor="#666666"
     borderopacity="1.0"
     inkscape:pageopacity="0.0"
     inkscape:pageshadow="2"
     inkscape:zoom="5.0581903"
     inkscape:cx="88.668076"
     inkscape:cy="32.894587"
     inkscape:document-units="mm"
     inkscape:current-layer="layer1"
     showgrid="false"
     fit-margin-top="0"
     fit-margin-left="0"
     fit-margin-right="0"
     fit-margin-bottom="0"
     units="px"
     inkscape:window-width="1280"
     inkscape:window-height="744"
     inkscape:window-x="-4"
     inkscape:window-y="-4"
     inkscape:window-maximized="1" />
  <metadata
     id="metadata5460">
    <rdf:RDF>
      <cc:Work
         rdf:about="">
        <dc:format>image/svg+xml</dc:format>
        <dc:type
           rdf:resource="http://purl.org/dc/dcmitype/StillImage" />
        <dc:title></dc:title>
      </cc:Work>
    </rdf:RDF>
  </metadata>
  <g
     inkscape:label="Layer 1"
     inkscape:groupmode="layer"
     id="layer1"
     transform="translate(10.98688,-139.86539)">
    <g
       transform="translate(-322.99693,-122.67539)"
       id="g5434"
       style="fill:#ffffff;fill-opacity:1">
      <path
         d="m 336.30694,267.30414 1.34161,1.6831 0.73131,0.0684 -1.06327,1.06327 -0.0684,-0.7313 -1.6831,-1.34162 -0.004,-0.003 -0.004,0.003 -1.6831,1.34162 -0.0684,0.7313 -1.06327,-1.06327 0.73131,-0.0684 1.34161,-1.6831 0.003,-0.003 -0.003,-0.004 -1.34161,-1.68275 -0.73131,-0.0688 1.06327,-1.06327 0.0684,0.73131 1.6831,1.34161 0.004,0.004 0.004,-0.004 1.6831,-1.34161 0.0684,-0.73131 1.06327,1.06327 -0.73131,0.0688 -1.34161,1.68275 -0.004,0.004 z m -0.74542,-3.95676 c -1.05586,0 -2.04893,0.41134 -2.79541,1.15782 -1.54129,1.54164 -1.54129,4.04954 0,5.59082 0.74648,0.74683 1.73955,1.15782 2.79541,1.15782 1.05586,0 2.04858,-0.41099 2.79541,-1.15782 1.54129,-1.54128 1.54129,-4.04918 0,-5.59082 -0.74683,-0.74648 -1.73955,-1.15782 -2.79541,-1.15782"
         style="fill:#ffffff;fill-opacity:1;fill-rule:nonzero;stroke:none;stroke-width:0.35277778"
         id="path1334"
         inkscape:connector-curvature="0" />
      <path
         d="m 334.98155,267.30015 0.5782,0.57856 0.57821,-0.57856 -0.57821,-0.5782"
         style="fill:#ffffff;fill-opacity:1;fill-rule:nonzero;stroke:none;stroke-width:0.35277778"
         id="path1338"
         inkscape:connector-curvature="0" />
      <path
         d="m 338.51173,270.25096 c -0.81456,0.81456 -1.88242,1.22202 -2.95028,1.22202 -1.06751,0 -2.13572,-0.40746 -2.95028,-1.22202 -1.62948,-1.62948 -1.62948,-4.27108 0,-5.90056 0.81456,-0.81492 1.88277,-1.22238 2.95028,-1.22238 1.06786,0 2.13572,0.40746 2.95028,1.22238 1.62948,1.62948 1.62948,4.27108 0,5.90056 m 1.46156,-4.34305 c -0.76835,-2.43346 -3.37256,-3.78777 -5.80461,-3.01977 -2.43275,0.76799 -3.78707,3.3722 -3.01872,5.80531 0.7673,2.43275 3.37185,3.78777 5.80496,3.01977 2.43205,-0.76799 3.78601,-3.3722 3.01837,-5.80531"
         style="fill:#ffffff;fill-opacity:1;fill-rule:nonzero;stroke:none;stroke-width:0.35277778"
         id="path1342"
         inkscape:connector-curvature="0" />
      <path
         d="m 329.10738,276.76169 c -0.18239,0.21131 -0.49636,0.31679 -0.86042,0.31679 -0.0409,0 -0.0815,-0.001 -0.12171,-0.004 -0.0406,-0.003 -0.0868,-0.007 -0.139,-0.0131 v -2.67194 h 0.27764 c 0.33549,0 0.63958,0.12453 0.83044,0.37289 0.1905,0.24906 0.30691,0.59866 0.30691,1.04986 0,0.42228 -0.11218,0.73872 -0.29386,0.94968 m 0.86042,0.38559 c 0.34149,-0.14817 0.58667,-0.34008 0.76659,-0.57644 0.19262,-0.25224 0.28857,-0.54787 0.28857,-0.8883 0,-0.20919 -0.0328,-0.39828 -0.0988,-0.56797 -0.0988,-0.28399 -0.29246,-0.51294 -0.58174,-0.68615 -0.43956,-0.26317 -1.07526,-0.39476 -1.94839,-0.39476 h -2.29411 v 0.0522 l 0.28152,0.40323 v 4.60198 l -0.4445,0.83291 v 0.0519 h 2.49378 v -0.0519 l -0.4445,-0.83291 v -1.657 h 0.15628 c 0.0402,0 0.0882,-0.001 0.14323,-0.004 0.0547,-0.003 0.14005,-0.007 0.25576,-0.013 l 0.9458,1.91699 0.18203,0.64206 h 1.96251 v -0.0519 l -0.65299,-0.86783"
         style="fill:#ffffff;fill-opacity:1;fill-rule:nonzero;stroke:none;stroke-width:0.35277778"
         id="path1346"
         inkscape:connector-curvature="0" />
      <path
         d="m 336.28895,275.9509 h 0.0864 l 1.3014,-1.56175 h 0.59831 v 4.70182 l -0.28117,0.83291 v 0.0519 h 2.16782 v -0.0519 l -0.28151,-0.83291 v -4.70182 h 0.59831 l 1.3014,1.56175 h 0.0868 v -1.91735 h -5.57777"
         style="fill:#ffffff;fill-opacity:1;fill-rule:nonzero;stroke:none;stroke-width:0.35277778"
         id="path1350"
         inkscape:connector-curvature="0" />
      <path
         d="m 358.71087,277.06109 c -0.23389,-0.29457 -0.61419,-0.54081 -1.14053,-0.73731 L 356.911,276.0719 c -0.33514,-0.127 -0.58385,-0.27128 -0.74542,-0.43356 -0.16263,-0.16157 -0.24307,-0.34678 -0.24307,-0.55527 0,-0.20779 0.0752,-0.3743 0.22543,-0.49848 0.15028,-0.12418 0.34713,-0.18627 0.58949,-0.18627 0.35278,0 0.69392,0.14006 1.02376,0.42051 0.3295,0.28046 0.60149,0.65794 0.81562,1.13207 h 0.0868 v -1.91735 h -1.80481 c -0.66464,0 -1.19698,0.16651 -1.59597,0.49883 -0.39864,0.33267 -0.59831,0.77364 -0.59831,1.32327 0,0.41063 0.11712,0.77047 0.35172,1.07985 0.23389,0.30939 0.55598,0.54222 0.96696,0.6978 l 0.65899,0.25223 c 0.39899,0.14993 0.69286,0.3175 0.88018,0.50271 0.24765,0.24342 0.38382,0.66428 0.13512,0.95074 -0.27623,0.31891 -0.77118,0.33372 -1.14336,0.19614 -0.79304,-0.29281 -1.38782,-1.09326 -1.69474,-1.84079 h -0.0868 v 2.28141 h 2.55728 c 0.42722,0 0.85125,-0.13688 1.17158,-0.4191 l 0.007,-0.006 c 0.39582,-0.35278 0.59408,-0.82126 0.59408,-1.40511 0,-0.42792 -0.11712,-0.78952 -0.35172,-1.08444"
         style="fill:#ffffff;fill-opacity:1;fill-rule:nonzero;stroke:none;stroke-width:0.35277778"
         id="path1354"
         inkscape:connector-curvature="0" />
      <path
         d="m 352.46822,274.08569 0.21414,0.82656 v 3.14713 l -2.65042,-4.02555 h -1.27565 -0.59372 v 0.0519 l 0.50976,0.82656 v 4.18853 l -0.21202,0.82268 v 0.0522 h 0.97332 v -0.0522 l -0.21238,-0.82621 v -3.29635 l 2.74814,4.17477 h 0.83573 0.3422 0.0836 v -5.06342 l 0.21378,-0.82656 v -0.0519 h -0.97649"
         style="fill:#ffffff;fill-opacity:1;fill-rule:nonzero;stroke:none;stroke-width:0.35277778"
         id="path1358"
         inkscape:connector-curvature="0" />
      <path
         d="m 354.7647,274.03369 h -0.92957 v 1.19521 h 0.4893 l 0.44027,-1.14335"
         style="fill:#ffffff;fill-opacity:1;fill-rule:nonzero;stroke:none;stroke-width:0.35277778"
         id="path1362"
         inkscape:connector-curvature="0" />
      <path
         d="m 345.15499,279.51293 c -0.77823,-0.0148 -1.52859,-0.99413 -1.52859,-2.50825 0,-1.51412 0.75036,-2.49343 1.52824,-2.50825 0.77787,0.0148 1.52858,0.99413 1.52858,2.50825 0,1.51412 -0.75071,2.49308 -1.52823,2.50825 m 0.0176,-5.58271 v -7e-4 c -0.006,0 -0.012,7e-4 -0.018,7e-4 -0.006,0 -0.012,-7e-4 -0.018,-7e-4 v 7e-4 c -2.01295,0.0162 -3.16513,1.38642 -3.16513,3.07446 0,1.68804 1.15218,3.05788 3.16513,3.07411 v 10e-4 c 0.006,0 0.012,-7e-4 0.018,-7e-4 0.006,0 0.012,7e-4 0.018,7e-4 v -10e-4 c 2.01365,-0.0162 3.16583,-1.38607 3.16583,-3.07411 0,-1.68804 -1.15218,-3.05823 -3.16583,-3.07446"
         style="fill:#ffffff;fill-opacity:1;fill-rule:nonzero;stroke:none;stroke-width:0.35277778"
         id="path1366"
         inkscape:connector-curvature="0" />
      <path
         d="m 334.79659,276.32364 -0.65899,-0.25153 c -0.33549,-0.127 -0.58455,-0.27164 -0.74612,-0.43356 -0.16228,-0.16193 -0.24271,-0.34714 -0.24271,-0.55528 0,-0.20814 0.0751,-0.37429 0.22542,-0.49847 0.15028,-0.12453 0.34678,-0.18627 0.58984,-0.18627 0.35278,0 0.69392,0.14005 1.02341,0.42051 0.32985,0.28046 0.60184,0.65758 0.81562,1.13171 h 0.0868 v -1.91699 h -1.80446 c -0.66499,0 -1.19697,0.16616 -1.59597,0.49883 -0.39899,0.33267 -0.59831,0.77329 -0.59831,1.32291 0,0.41064 0.11712,0.77047 0.35102,1.07986 0.23459,0.30938 0.55668,0.54257 0.96731,0.69814 l 0.65899,0.25189 c 0.39935,0.15028 0.6925,0.31785 0.88054,0.50271 0.24764,0.24376 0.38311,0.66428 0.13476,0.95108 -0.27588,0.31892 -0.77118,0.33338 -1.14371,0.19615 -0.79269,-0.29316 -1.38783,-1.09361 -1.69439,-1.84115 h -0.0868 v 2.28177 h 2.55763 c 0.42722,0 0.8509,-0.13688 1.17158,-0.4191 l 0.006,-0.006 c 0.39652,-0.35278 0.59443,-0.82092 0.59443,-1.40512 0,-0.42756 -0.11748,-0.78916 -0.35101,-1.08443 -0.2346,-0.29493 -0.6149,-0.54046 -1.14124,-0.73731"
         style="fill:#ffffff;fill-opacity:1;fill-rule:nonzero;stroke:none;stroke-width:0.35277778"
         id="path1370"
         inkscape:connector-curvature="0" />
      <path
         d="m 318.75939,274.48909 v 7.1e-4 l 0.2607,-0.40393 v -0.0519 h -1.81645 l -1.48096,3.64701 -1.57868,-3.64701 h -1.67534 v 0.0519 l 0.13229,0.3048 -0.23883,4.7064 -0.21978,0.82656 v 0.0519 h 0.96202 v -0.0519 l -0.19403,-0.82656 0.18133,-3.57222 1.90394,4.39878 h 0.0773 0.0984 0.0765 3.5e-4 l 1.94698,-4.76215 0.26,3.92995 -0.28152,0.8322 v 0.0519 h 2.16782 v -0.0519 l -0.28151,-0.8322"
         style="fill:#ffffff;fill-opacity:1;fill-rule:nonzero;stroke:none;stroke-width:0.35277778"
         id="path1374"
         inkscape:connector-curvature="0" />
      <path
         d="m 321.31709,277.86768 0.73872,-1.67852 0.70732,1.67852 z m 1.52435,-3.83364 h -0.43391 l -0.67416,1.5293 -10e-4,-10e-4 -0.81915,1.86125 -0.73519,1.66758 -0.60713,0.83256 v 0.0519 h 1.30528 v -0.0519 l -0.20144,-0.5962 0.48613,-1.10419 h 1.7586 l 0.36406,0.86783 -0.28151,0.83256 v 0.0519 h 2.6931 v -0.0519 l -0.60713,-0.83256"
         style="fill:#ffffff;fill-opacity:1;fill-rule:nonzero;stroke:none;stroke-width:0.35277778"
         id="path1378"
         inkscape:connector-curvature="0" />
    </g>
  </g>
</svg>
