<?xml version="1.0" encoding="UTF-8"?> <svg xmlns="http://www.w3.org/2000/svg" viewBox="0 0 281.01 82.4"><defs><style>.cls-1{fill:#008ec2;}.cls-2{fill:none;}.cls-3{fill:#005780;}</style></defs><g id="Layer_2" data-name="Layer 2"><g id="Layer_1-2" data-name="Layer 1"><g id="Group_609" data-name="Group 609"><path id="Path_1" data-name="Path 1" class="cls-1" d="M135.6,4.32h.1V1.64c0-1.12-.31-1.43-1.44-1.35a15.64,15.64,0,0,0-5.17,1.32A9.69,9.69,0,0,0,123,8.73a29.32,29.32,0,0,0-.31,11.2A17.76,17.76,0,0,0,129.07,31c1.22,1,2.38,2.09,3.54,3.15.72.66,1.38,1.37,2.12,2,1.55,1.34,3.23,2.54,4.68,4a7.44,7.44,0,0,1,2.11,7.44,3.53,3.53,0,0,1-1.93,2.6,2.24,2.24,0,0,0-1.3,2.43c0,1.61.05,3.21.06,4.82,0,.4,0,.81,0,1.21.1.83.43,1.15,1.25,1.09a20.36,20.36,0,0,0,3-.41A10.59,10.59,0,0,0,150.86,52a22.55,22.55,0,0,0,1-8.79,17.3,17.3,0,0,0-1.23-5.81,20.23,20.23,0,0,0-4.5-6.4c-1.52-1.55-3.22-2.92-4.75-4.46-2-2-3.93-4.06-5.84-6.14A33.27,33.27,0,0,1,132.77,17a5.46,5.46,0,0,1,1.52-7.57l.33-.2a1.7,1.7,0,0,0,1-1.51c0-1.14,0-2.28,0-3.42"></path><path id="Path_2" data-name="Path 2" class="cls-1" d="M93.73,24V26.1Q93.67,41.54,93.59,57c0,1.4.29,1.68,1.68,1.68h8.48c1.17,0,1.47-.28,1.62-1.43a5,5,0,0,0,0-.67c0-2.25,0-4.51,0-6.76-.08-6.52-.2-13-.25-19.57,0-2.33.19-4.67.21-7,0-4.19,0-8.38,0-12.56,0-2.64,0-5.29-.1-7.93,0-1.25-.39-1.54-1.67-1.55H97.42c-.77,0-1.54,0-2.31,0a1.15,1.15,0,0,0-1.31,1,1.62,1.62,0,0,0,0,.22,11.07,11.07,0,0,0-.06,1.15V24"></path><path id="Path_3" data-name="Path 3" class="cls-1" d="M255.61,19.21h.12c0,6.14,0,12.28,0,18.42,0,6.42.1,12.85.15,19.27a3.93,3.93,0,0,0,0,.49c.09.89.43,1.24,1.33,1.24q4.26,0,8.54,0c.91,0,1.28-.4,1.3-1.32,0-.61-.09-1.22-.07-1.83.05-2.74.17-5.48.2-8.22q0-5.68,0-11.35c0-2.23-.19-4.47-.2-6.7,0-1.42.19-2.84.2-4.26,0-5.67,0-11.34,0-17,0-.56-.14-1.13-.17-1.69-.06-.87-.1-1.74-.13-2.6,0-.47.06-.94.07-1.4a.94.94,0,0,0-.83-1,3,3,0,0,0-.78-.08c-2.71,0-5.41,0-8.12,0a4.28,4.28,0,0,0-.72.06,1,1,0,0,0-.88,1c0,.34,0,.69,0,1v16"></path><path id="Path_4" data-name="Path 4" class="cls-1" d="M13,54.22h0V57c0,1.27.34,1.7,1.57,1.58a41.93,41.93,0,0,0,5.6-.79,9.51,9.51,0,0,0,6.11-4.26,20,20,0,0,0,2-17.89,10.79,10.79,0,0,0-6.07-6.43c-.35-.16-.71-.29-1-.47-.7-.36-.72-.77-.06-1.21.33-.19.67-.38,1-.54a10.45,10.45,0,0,0,5.26-5.53,15.07,15.07,0,0,0,.94-5.8A25.32,25.32,0,0,0,25.71,5.53,5.86,5.86,0,0,0,21.47,1.9c-2.35-.44-4.75-.62-7.13-.85C13.47,1,13.07,1.43,13,2.3q-.06,3-.1,6c0,1,.24,1.35,1.2,1.65a5.3,5.3,0,0,1,3.45,3.37,10.41,10.41,0,0,1,.17,7.11,5.16,5.16,0,0,1-3.52,3.75,1.59,1.59,0,0,0-1.15,1.68c0,2.11-.07,4.22-.05,6.33,0,1.28.22,1.48,1.45,1.7A4.81,4.81,0,0,1,18.59,38a18.42,18.42,0,0,1,.14,6.37c-.39,2.88-1.7,4.92-4.79,5.44-.69.11-1,.52-1,1.27,0,1,0,2.07,0,3.11"></path><path id="Path_5" data-name="Path 5" class="cls-1" d="M11.33,26.77h-.09V2.62c0-1.26-.35-1.59-1.6-1.6q-4,0-8,0C.36,1,0,1.36,0,2.58Q0,18.52,0,34.47a6.08,6.08,0,0,0,.22,1.19A11.77,11.77,0,0,1,.7,38C.71,44.31.65,50.67.63,57c0,1.26.33,1.6,1.59,1.6H9.78c1.32,0,1.58-.27,1.58-1.57,0-2.7,0-5.4,0-8.1q0-11.1,0-22.2"></path><path id="Path_6" data-name="Path 6" class="cls-1" d="M182.68,29.87c0,4.86-.07,9.72,0,14.58a26.6,26.6,0,0,0,.7,5.55,12,12,0,0,0,5.52,7.87,13.91,13.91,0,0,0,6.18,1.9c1.29.11,1.8-.29,1.82-1.57,0-1.79,0-3.58,0-5.37a2.11,2.11,0,0,0-.73-1.73,3.27,3.27,0,0,1-1.14-2.16c-.11-.95-.23-1.9-.31-2.85a1.87,1.87,0,0,0-.78-1.45,2.43,2.43,0,0,1-1-2.18c.06-2.7.08-5.4.11-8.11l.15-19.27c0-.16,0-.33,0-.49.19-1.18.31-2.38.59-3.53A2.93,2.93,0,0,1,195.52,9a2.29,2.29,0,0,0,1.4-2.56c-.07-1.42-.09-2.84-.11-4.26,0-2-.34-2.3-2.31-2.08a12,12,0,0,0-10,6.84,18.44,18.44,0,0,0-1.8,8.39c0,4.86,0,9.72,0,14.58"></path><rect id="Rectangle_7" data-name="Rectangle 7" class="cls-2" width="281.01" height="82.4"></rect><path id="Path_7" data-name="Path 7" class="cls-1" d="M202.21,29.82h0v6.89c0,3,0,6.07-.05,9.09-.07,2.32-.59,4.46-3.08,5.49a1.37,1.37,0,0,0-.65,1c-.06,2.16-.05,4.31,0,6.47a1,1,0,0,0,.91,1h.05a6.75,6.75,0,0,0,1.27,0,13,13,0,0,0,8.54-4.11,14.63,14.63,0,0,0,3.48-8.3,6.84,6.84,0,0,0,0-2.59,10.29,10.29,0,0,1-.36-3.12q.15-5.36.24-10.73.15-9.21.27-18.42a8.82,8.82,0,0,0-.25-2.23,12.85,12.85,0,0,0-7.79-9A12.56,12.56,0,0,0,199.49,0a1,1,0,0,0-1.1.85s0,.08,0,.12a5.82,5.82,0,0,0-.08.73V6.78a2,2,0,0,0,1.3,2.06,3.25,3.25,0,0,1,2,2.26,18.39,18.39,0,0,1,.59,3.9c.06,4.94,0,9.88,0,14.82"></path><path id="Path_8" data-name="Path 8" class="cls-1" d="M60.52,24.83V44.47c0,1.34,0,2.69.13,4a13.33,13.33,0,0,0,2,6.16c2.18,3.41,5.53,4.69,9.35,5.06,1.18.12,1.6-.29,1.61-1.5,0-1.91,0-3.82,0-5.73a2.48,2.48,0,0,0-.86-2A3.56,3.56,0,0,1,71.41,48a25.63,25.63,0,0,1-.17-3.16q0-20.61,0-41.23c0-.46,0-.93-.07-1.4-.09-.85-.39-1.12-1.25-1.17H62.65c-2,0-2.13.14-2.13,2.16V24.83Z"></path><path id="Path_9" data-name="Path 9" class="cls-1" d="M88.48,25.37h0V22.62q0-10.07,0-20.12C88.47,1.38,88.12,1,87,1c-2.4,0-4.81,0-7.21,0-1,0-1.32.39-1.36,1.33S78.37,4.1,78.36,5q-.14,7.23-.25,14.45C78,25.21,77.92,31,77.86,36.79a8.05,8.05,0,0,1-.64,3.14A2.89,2.89,0,0,0,77,41.57a16.27,16.27,0,0,1,0,6.41,3.7,3.7,0,0,1-1.14,2.24,2.64,2.64,0,0,0-.89,2.24c.06,1.32.08,2.64.1,4,0,.73-.07,1.46,0,2.19s.4,1.12,1.27,1.12a15.32,15.32,0,0,0,5.6-1.08,9.55,9.55,0,0,0,5.84-6.23,17.63,17.63,0,0,0,.77-5.35V25.36"></path><path id="Path_10" data-name="Path 10" class="cls-1" d="M33.2,29.76V56.91c0,1.42.32,1.73,1.72,1.73h7.2c1.24,0,1.55-.32,1.55-1.56V49.83l0-46.55c0-.34,0-.69,0-1A1.09,1.09,0,0,0,42.7,1a1,1,0,0,0-.25,0q-4,0-7.93,0c-.88,0-1.23.39-1.3,1.28,0,.32,0,.65,0,1V29.77"></path><path id="Path_11" data-name="Path 11" class="cls-1" d="M229.87,35.19h0q0-8.91,0-17.81c0-1-.06-1.95-.15-2.92-.12-1.25-.46-1.51-1.7-1.61-1.6-.13-3.2-.32-4.79-.45a18.46,18.46,0,0,0-3.15-.13c-1.07.1-1.36.68-1.27,1.76a15.78,15.78,0,0,1,0,2.06c0,.79-.15,1.58-.15,2.37q0,17.2,0,34.4c0,.39,0,.78,0,1.16a7.22,7.22,0,0,1-.33,3.42c-.29.65.06,1.1.78,1.17a4.19,4.19,0,0,0,.61,0h8.6c1.34,0,1.66-.31,1.64-1.67,0-1.71-.12-3.41-.13-5.12,0-5.55,0-11.1,0-16.65"></path><path id="Path_12" data-name="Path 12" class="cls-1" d="M244.86,58.86h3.72c1.85,0,2.07-.2,2-2.08,0-1.4-.18-2.8-.22-4.2-.1-3-.16-6-.23-8.95q-.19-8.09-.37-16.15c-.07-3.09-.11-6.18-.17-9.27,0-1.14-.06-2.27-.11-3.41s-.51-1.55-1.6-1.55c-.71,0-1.42.06-2.13.1-1.52.08-3,.16-4.56.26-1,.06-1.48.48-1.36,1.33a23,23,0,0,1-.06,3.89c-.13,4.12-.19,8.25-.25,12.37-.07,4.64-.11,9.27-.17,13.9,0,.18,0,.37,0,.55-.06,3.92-.14,7.84-.18,11.76,0,1.05.42,1.42,1.47,1.43,1.4,0,2.81,0,4.21,0"></path><path id="Path_13" data-name="Path 13" class="cls-1" d="M161.32,35.68V57c0,1.34.33,1.67,1.66,1.67h7.07c1.37,0,1.69-.3,1.71-1.68,0-1,0-2.07-.06-3.11l-.15-28.18a17.25,17.25,0,0,0-.29-2.16,8.78,8.78,0,0,1-.13-1.45c.12-2.62.3-5.23.42-7.85.06-1.26-.22-1.49-1.49-1.48-2.25,0-4.5,0-6.76,0-1.71,0-2,.21-2,1.94v21"></path><path id="Path_14" data-name="Path 14" class="cls-1" d="M249.44,10.72c1,.06,1.49-.39,1.38-1.35q-.34-3-.73-6c-.13-1-.49-1.4-1.51-1.52C243.29,1.25,238,.64,232.7.09a7.22,7.22,0,0,0-1.9.28,3.39,3.39,0,0,1-1,.18,10.49,10.49,0,0,0-4,.38L219.9,2.09c-.71.14-1.32.44-1.44,1.21Q218,6.14,217.69,9c-.08.76.3,1.11,1.07,1.18.35,0,.7,0,1,0,2.35.11,4.71.21,7.06.35a34.23,34.23,0,0,0,6.32.26,18.81,18.81,0,0,1,2.49,0c1.67,0,3.33.13,5,.11,2.92,0,5.85-.11,8.77-.17"></path><path id="Path_15" data-name="Path 15" class="cls-1" d="M166.81,1H154.43c-1.3,0-1.64.33-1.65,1.62q0,3.32,0,6.65c0,1.21.4,1.6,1.63,1.6,7,0,14,0,20.93,0a3.85,3.85,0,0,0,1.79-.47,26,26,0,0,0,3-2.05,1.74,1.74,0,0,0,.66-1.1c.07-1.74.06-3.49,0-5.24a1,1,0,0,0-1-1h0c-.33,0-.65,0-1,0H166.82"></path><path id="Path_16" data-name="Path 16" class="cls-1" d="M126.88,42h-3.36c-1.41,0-1.84.39-1.71,1.79a55.52,55.52,0,0,0,.73,5.61,12.6,12.6,0,0,0,3,6.14c2.64,2.93,6.08,4,9.88,4.17.93,0,1.36-.4,1.39-1.38.06-1.44.09-2.88.1-4.32,0-.73,0-1.46,0-2.19a1.78,1.78,0,0,0-1.05-1.52,6.5,6.5,0,0,1-1.8-1.41c-1.21-1.53-1.5-3.44-1.93-5.27-.28-1.24-.52-1.61-1.82-1.62h-3.35"></path><path id="Path_17" data-name="Path 17" class="cls-1" d="M146.29,17.51h2.93c1.2,0,1.52-.3,1.48-1.48-.06-1.74-.12-3.5-.3-5.23a12.74,12.74,0,0,0-1.77-5.66c-2.4-3.74-6.07-4.94-10.25-5.06-.74,0-1.1.43-1.1,1.23,0,2,0,4,0,6a1.77,1.77,0,0,0,1.22,1.84,3.9,3.9,0,0,1,2.48,3c.32,1.43.65,2.85,1,4.27a1.12,1.12,0,0,0,1.18,1.05h.1c1,0,2,0,3.05,0"></path><path id="Path_18" data-name="Path 18" class="cls-1" d="M51.35,58.64c1.42,0,2.84,0,4.26,0,.88,0,1.22-.36,1.25-1.23,0-.65,0-1.3,0-1.95.07-1.58.18-3.15.25-4.73A8.06,8.06,0,0,0,57,49.09a1.26,1.26,0,0,0-1.29-1.22h-.06c-1.87-.1-3.73-.15-5.6-.25a7.13,7.13,0,0,0-3.27.48c-1.14.47-1.42.72-1.41,2,0,2.29.05,4.59.1,6.88,0,1.18.51,1.67,1.69,1.68,1.38,0,2.76,0,4.14,0"></path><path id="Path_19" data-name="Path 19" class="cls-1" d="M113.14,58.64h4.64c1,0,1.39-.35,1.4-1.35q0-3.66,0-7.32c0-1-.4-1.33-1.36-1.34q-4.63,0-9.27,0c-1,0-1.4.38-1.4,1.36q0,3.63,0,7.26c0,1,.4,1.38,1.42,1.4h4.58"></path><path id="Path_20" data-name="Path 20" class="cls-1" d="M275,58.64h4.58c1,0,1.41-.36,1.41-1.39q0-3.63,0-7.26c0-1-.38-1.35-1.33-1.36q-4.7,0-9.39,0c-.86,0-1.28.37-1.3,1.21q-.06,3.75,0,7.5c0,1,.43,1.29,1.39,1.3H275"></path><rect id="Rectangle_9" data-name="Rectangle 9" class="cls-2" width="281.01" height="82.4"></rect><path id="Path_21" data-name="Path 21" class="cls-1" d="M112.55,12h4.09c1.18,0,1.47-.3,1.48-1.5q0-3.93,0-7.86c0-1.09-.38-1.47-1.46-1.49s-2.16,0-3.24,0c-1.66,0-3.33,0-5,0-1.08,0-1.43.38-1.43,1.44v8.05c0,1,.31,1.34,1.29,1.35,1.42,0,2.85,0,4.27,0"></path><path id="Path_22" data-name="Path 22" class="cls-1" d="M279.93,6.67h0c0-1.3,0-2.6,0-3.9s-.35-1.59-1.6-1.59c-2.48,0-5,0-7.44,0a4,4,0,0,0-.49,0,1.19,1.19,0,0,0-1.2,1.17v0a38.05,38.05,0,0,0,0,8.4c.12.84.47,1.2,1.32,1.21h8.17c.92,0,1.25-.34,1.26-1.27,0-1.36,0-2.72,0-4.08"></path><path id="Path_23" data-name="Path 23" class="cls-1" d="M273.21,24.93H270c-1.24,0-1.6.35-1.59,1.61,0,2.45.06,4.91.1,7.37,0,1,.4,1.4,1.42,1.4q3,0,6.09,0c1,0,1.36-.32,1.43-1.28.18-2.59.32-5.19.43-7.78,0-.91-.38-1.3-1.3-1.31-1.13,0-2.27,0-3.41,0"></path><path id="Path_24" data-name="Path 24" class="cls-1" d="M115.1,30h.06c0-1.24,0-2.48,0-3.72,0-.88-.36-1.35-1.07-1.36-2.11,0-4.23,0-6.34,0a1,1,0,0,0-1.08.94v.15q0,4,.09,8c0,.85.43,1.2,1.29,1.21,1.93,0,3.86,0,5.79,0,.81,0,1.22-.36,1.25-1.18.06-1.36,0-2.72,0-4.08"></path><path id="Path_25" data-name="Path 25" class="cls-3" d="M75,56.43c0,.73-.07,1.46,0,2.19s.4,1.12,1.28,1.12a15.61,15.61,0,0,0,5.6-1.08,9.51,9.51,0,0,0,5.83-6.23,17.33,17.33,0,0,0,.78-5.35V25.37h0V22.58a11.78,11.78,0,0,1-1.87.42,11.19,11.19,0,0,1-3.37.1,3.22,3.22,0,0,0-1,.06,13.91,13.91,0,0,1-1.82.22,3.47,3.47,0,0,0-1.41.37,9.68,9.68,0,0,1-1,.36q-.1,6.34-.19,12.69a8.05,8.05,0,0,1-.64,3.14A2.87,2.87,0,0,0,77,41.57a16.32,16.32,0,0,1,0,6.42,3.7,3.7,0,0,1-1.14,2.24,2.64,2.64,0,0,0-.89,2.24c.06,1.31.08,2.64.1,4"></path><path id="Path_26" data-name="Path 26" class="cls-3" d="M95.27,58.64h8.47c1.17,0,1.47-.28,1.62-1.43a5,5,0,0,0,0-.67c0-2.25,0-4.51,0-6.76-.07-6.52-.2-13-.25-19.57,0-2.33.19-4.67.21-7,0-.94,0-1.88,0-2.83-1.3.09-2.59.22-3.89.28a42,42,0,0,0-6.5.81c-.41.09-.84.15-1.26.24v4.4Q93.66,41.53,93.59,57c0,1.4.28,1.68,1.68,1.69"></path><path id="Path_27" data-name="Path 27" class="cls-3" d="M106.74,34.09c0,.84.43,1.2,1.29,1.21,1.93,0,3.86,0,5.8,0a1.09,1.09,0,0,0,1.25-1.18c0-1.36,0-2.72,0-4.08h.06c0-1.24,0-2.48,0-3.72,0-.88-.37-1.35-1.08-1.37q-3.16,0-6.33,0a1,1,0,0,0-1.08.95.38.38,0,0,0,0,.15c0,2.68,0,5.36.08,8"></path><path id="Path_28" data-name="Path 28" class="cls-3" d="M122.69,19.94a17.82,17.82,0,0,0,6.38,11c1.22,1,2.37,2.09,3.54,3.16.72.65,1.38,1.37,2.11,2,1.56,1.33,3.24,2.53,4.69,4a7.48,7.48,0,0,1,2.11,7.45,3.59,3.59,0,0,1-1.93,2.6,2.21,2.21,0,0,0-1.3,2.43c0,1.6,0,3.21.06,4.81,0,.41,0,.81,0,1.22.1.82.43,1.15,1.25,1.09a20.36,20.36,0,0,0,3-.41A10.59,10.59,0,0,0,150.85,52a22.55,22.55,0,0,0,1-8.79,17.3,17.3,0,0,0-1.23-5.81,20.36,20.36,0,0,0-4.49-6.4c-1.53-1.55-3.23-2.92-4.76-4.46-2-2-3.93-4.06-5.84-6.14A33.27,33.27,0,0,1,132.76,17a4.94,4.94,0,0,1-.75-1.75,8.16,8.16,0,0,0-2.3-.29,7.1,7.1,0,0,0-2,.27,8.13,8.13,0,0,1-2.2.46,24.15,24.15,0,0,1-3.18-.12,28.9,28.9,0,0,0,.36,4.35"></path><path id="Path_29" data-name="Path 29" class="cls-3" d="M117.82,48.63c-3.09,0-6.19,0-9.28,0-1,0-1.39.37-1.4,1.36,0,2.42,0,4.83,0,7.25,0,1,.4,1.39,1.43,1.4h9.21c1,0,1.39-.35,1.4-1.35q0-3.66,0-7.32c0-1-.39-1.33-1.36-1.34"></path><path id="Path_30" data-name="Path 30" class="cls-3" d="M22.51,34.39c-1.86.1-3.67.48-5.51.74A5.25,5.25,0,0,1,18.58,38a18.42,18.42,0,0,1,.13,6.37c-.38,2.88-1.7,4.92-4.78,5.44-.69.12-1,.52-1,1.27,0,1,0,2.07,0,3.11h0V57c0,1.26.34,1.7,1.58,1.58a42.4,42.4,0,0,0,5.6-.79,9.54,9.54,0,0,0,6.11-4.26,20,20,0,0,0,2-17.89,10.81,10.81,0,0,0-.94-2c-.38.06-.76.12-1.14.16-1.2.13-2.4.5-3.62.57"></path><path id="Path_31" data-name="Path 31" class="cls-3" d="M47.2,58.63c1.38,0,2.76,0,4.14,0s2.85,0,4.27,0c.87,0,1.21-.36,1.24-1.23,0-.65,0-1.3,0-1.95.07-1.58.19-3.15.26-4.73A8.06,8.06,0,0,0,57,49.09a1.26,1.26,0,0,0-1.29-1.22h-.07c-1.86-.1-3.73-.15-5.6-.26a7.18,7.18,0,0,0-3.27.49c-1.13.46-1.41.72-1.41,2,0,2.29.05,4.59.1,6.88,0,1.18.52,1.66,1.69,1.68"></path><path id="Path_32" data-name="Path 32" class="cls-3" d="M.69,38C.7,44.32.65,50.68.62,57c0,1.27.33,1.6,1.59,1.6H9.77c1.33,0,1.58-.27,1.58-1.57l0-8.1V35.84c-.25,0-.51,0-.77,0a2.55,2.55,0,0,0-.77.14c-1.24.36-2.51.59-3.77.86-1.44.31-3,.07-4.39.61a3.92,3.92,0,0,1-1,.21c0,.1,0,.18,0,.27"></path><path id="Path_33" data-name="Path 33" class="cls-3" d="M33.4,32.88l-.2.06v24c0,1.42.31,1.73,1.71,1.74h7.2c1.25,0,1.55-.33,1.55-1.57V49.83q0-9,0-18.11a15,15,0,0,0-2.4.23,20.26,20.26,0,0,1-4.46.5c-1,0-2,.4-3.08.34a.64.64,0,0,0-.33.1"></path><path id="Path_34" data-name="Path 34" class="cls-3" d="M60.51,30.21q0,7.13,0,14.26c0,1.34,0,2.69.13,4a13.22,13.22,0,0,0,2,6.16c2.17,3.41,5.53,4.69,9.34,5.06,1.19.12,1.6-.3,1.62-1.5,0-1.91,0-3.82,0-5.73a2.45,2.45,0,0,0-.87-2A3.64,3.64,0,0,1,71.4,48a30.26,30.26,0,0,1-.17-3.16V25.56q-.45.26-.93.48a4.75,4.75,0,0,1-1.38.4,2.86,2.86,0,0,0-2.24,1.13,4.48,4.48,0,0,1-1.89,1.77,9.82,9.82,0,0,1-3.77.85h-.51"></path><path id="Path_35" data-name="Path 35" class="cls-3" d="M255.89,56.9c0,.16,0,.33,0,.49.09.89.43,1.24,1.33,1.24,2.85,0,5.69,0,8.54,0,.91,0,1.28-.4,1.29-1.32,0-.61-.08-1.22-.07-1.83,0-1.27.07-2.53.11-3.8a17.92,17.92,0,0,0-2.9-1c-1.24-.19-2.46-.47-3.7-.62-.84-.11-1.69-.19-2.52-.32s-1.44-.12-2.16-.21l.06,7.41"></path><path id="Path_36" data-name="Path 36" class="cls-3" d="M225,37.52c-1-.4-1.9-1-2.89-1.31-.77-.25-1.55-.48-2.31-.77a10.36,10.36,0,0,1-1.08-.47v17.9c0,.39,0,.77,0,1.16a7.23,7.23,0,0,1-.33,3.42c-.29.65.06,1.1.78,1.17.21,0,.41,0,.61,0h8.6c1.33,0,1.66-.32,1.64-1.68,0-1.7-.13-3.41-.13-5.12q0-6,0-11.92c-.73-.36-1.46-.72-2.18-1.09-.9-.45-1.79-.93-2.73-1.31"></path><path id="Path_37" data-name="Path 37" class="cls-3" d="M244.93,47.88a5.62,5.62,0,0,1-1.52-.3c-.62-.19-1.15-.55-1.75-.75a5.34,5.34,0,0,1-2.3-1.36c0,.06,0,.13,0,.2-.06,3.92-.14,7.84-.18,11.76,0,1,.41,1.42,1.47,1.43,1.4,0,2.8,0,4.21,0h3.72c1.85,0,2.07-.2,2-2.08,0-1.4-.18-2.8-.22-4.2s-.07-2.57-.1-3.86l-.55-.09a39.27,39.27,0,0,0-4.8-.76"></path><path id="Path_38" data-name="Path 38" class="cls-3" d="M270.36,58.64h9.21c1,0,1.41-.37,1.42-1.4,0-1.19,0-2.38,0-3.57-.59-.09-1.18-.15-1.77-.22-2.12-.23-4.26-.37-6.37-.74a4.26,4.26,0,0,1-1.17-.23,4.8,4.8,0,0,0-1.87-.33l-.84-.08c0,1.75,0,3.51,0,5.26,0,1,.42,1.3,1.39,1.3"></path><path id="Path_39" data-name="Path 39" class="cls-3" d="M143.24,17.51h1.27A5.6,5.6,0,0,0,142,16.7a1.08,1.08,0,0,0,1.2.8"></path><path id="Path_40" data-name="Path 40" class="cls-3" d="M125.49,55.58c2.64,2.93,6.08,4,9.88,4.17.93,0,1.36-.4,1.39-1.37.06-1.44.09-2.89.1-4.33,0-.73,0-1.46-.05-2.19a1.77,1.77,0,0,0-1-1.52A6,6,0,0,1,134,48.93c-1.21-1.52-1.51-3.44-1.93-5.27-.29-1.24-.53-1.6-1.83-1.62h-6.71c-1.41,0-1.84.4-1.71,1.79a55.71,55.71,0,0,0,.73,5.62,12.57,12.57,0,0,0,3,6.13"></path><path id="Path_41" data-name="Path 41" class="cls-3" d="M199.37,59.76a6,6,0,0,0,1.27,0,13,13,0,0,0,8.54-4.1,14.58,14.58,0,0,0,3.47-8.3,6.69,6.69,0,0,0,0-2.6,10.19,10.19,0,0,1-.36-3.11q.12-4.58.2-9.13h0A10.6,10.6,0,0,1,208,30.8,6.17,6.17,0,0,0,206,30a12,12,0,0,1-3.58-1.26l-.24-.1v1.2h0v6.9c0,3,.05,6.06,0,9.09-.07,2.31-.6,4.45-3.08,5.49a1.34,1.34,0,0,0-.65,1c-.06,2.15,0,4.31,0,6.46a1,1,0,0,0,.91,1h.05"></path><path id="Path_42" data-name="Path 42" class="cls-3" d="M170.11,21.55c-1.2-.06-2.41,0-3.61,0a6.28,6.28,0,0,1-2.15-.38,5.43,5.43,0,0,0-2.15-.31c-.29,0-.59,0-.88.07V57c0,1.33.33,1.66,1.65,1.66h7.08c1.37,0,1.69-.3,1.71-1.68,0-1-.06-2.07-.06-3.11l-.15-28.18a17.25,17.25,0,0,0-.29-2.16,8.78,8.78,0,0,1-.14-1.44l0-.52c-.34,0-.69,0-1,0"></path><path id="Path_43" data-name="Path 43" class="cls-3" d="M183.4,50a12,12,0,0,0,5.53,7.87,13.79,13.79,0,0,0,6.18,1.9c1.29.11,1.8-.29,1.82-1.57,0-1.79,0-3.58,0-5.36a2.12,2.12,0,0,0-.74-1.73,3.28,3.28,0,0,1-1.13-2.17c-.11-.94-.23-1.9-.31-2.84a1.92,1.92,0,0,0-.78-1.46,2.37,2.37,0,0,1-1-2.17c.06-2.7.08-5.41.1-8.11,0-2,0-3.89,0-5.84a21.1,21.1,0,0,1-3.26-.35c-1.22-.25-2.53-.15-3.63-.94s-2.44-1.44-3.6-2.26v4.9c0,4.86-.07,9.73,0,14.58a26.6,26.6,0,0,0,.7,5.55"></path><path id="Path_44" data-name="Path 44" class="cls-3" d="M222.3,82.07c-1.19,0-1.55-.43-1.56-1.73,0-3.43,0-7,0-10.44,0-1.35.42-1.82,1.73-1.84,2,0,3.66,0,5.68,0,1.3,0-.3,0,1,0s1.77.52,1.77,1.9c0,3.35,0,6.86,0,10.21,0,1.52-.36,1.89-1.78,1.9-1.65,0-2.3,0-3.95,0h0c-1.71,0-1.17,0-2.89,0M118.72,80.88a1.49,1.49,0,0,1-1.63,1.36,1.44,1.44,0,0,1-.6-.18,1.6,1.6,0,0,1-.57-1.07c-.4-2.49-.74-5-1.11-7.5-.21-1.47-.42-2.93-.67-4.4-.08-.48-.16-1,.5-.93s1.43-.42,1.57.58c.32,2.3.57,4.61.84,6.92a10.7,10.7,0,0,0,.53,2.62c.35-1.37.71-2.74,1.06-4.11.09-.36.16-.73.27-1.08.2-.72.18-1.55,1.35-1.54s1.09.81,1.26,1.49c.43,1.73.84,3.47,1.26,5.2H123c.1-.76.21-1.52.3-2.29.27-2.34.55-4.67.79-7,.1-1,.82-.8,1.42-.78s.67.58.6,1c-.58,4-1.19,8-1.75,12-.09.67-.32,1-1,.94s-1.46.19-1.68-.84c-.36-1.61-.77-3.22-1.16-4.82-.08-.3-.2-.59-.3-.88l-.26,0q-.63,2.64-1.27,5.26m32-7.61q0,3.84,0,7.7c0,.68-.06,1.19-1,1.18s-.88-.52-.88-1.15c0-3.92,0-7.84,0-11.76,0-.36.26-1,.49-1,.65-.13,1.46-.38,1.89.47Q153,72,154.68,75.38a18.37,18.37,0,0,0,1.66,2.88c0-.34.08-.67.08-1V69.35c0-.64,0-1.22.9-1.23s.94.52.93,1.19c0,3.89,0,7.77,0,11.66,0,.38-.28,1-.53,1.09-.61.13-1.4.36-1.81-.43-1.11-2.13-2.19-4.27-3.27-6.41-.52-1-1-2.07-1.52-3.1l-.3.09c0,.35-.05.71-.05,1.06M175.1,78.9c0,2.26-1,3.24-3.32,3.45-4.15.38-6.49-2.41-6.81-6.1a9.73,9.73,0,0,1,.75-5,5.79,5.79,0,0,1,7.72-2.78,5.93,5.93,0,0,1,.78.43c.41.28.85.63.41,1.24a.91.91,0,0,1-1.22.4.89.89,0,0,1-.22-.16,3.57,3.57,0,0,0-5,.62A3.63,3.63,0,0,0,167.6,72a7.35,7.35,0,0,0,.58,7.25,3.6,3.6,0,0,0,4.55.94,1.41,1.41,0,0,0,.5-.8,4.13,4.13,0,0,0,0-1.11c0-1.77.21-1.91-1.69-1.83-.7,0-1-.28-.95-1s.34-.88.95-.87q1.32,0,2.64,0c.66,0,.9.3.89.93,0,.78,0,1.55,0,2.33h0ZM99.58,69.27c0-.8.21-1.17,1.09-1.16,2.12,0,4.25,0,6.38,0,.59,0,1.08,0,1.07.85s-.56.78-1.12.78c-1.52,0-3,0-4.56,0-.73,0-1.06.24-1,1s0,1.41,0,2.12.29,1,1,.95c1.22,0,2.43,0,3.65,0,.68,0,1.09.14,1.07,1s-.4.9-1,.89c-1.25,0-2.5,0-3.75,0-.65,0-.93.25-.91.9,0,1,0,2,0,3,0,.72.31.94,1,.93,1.62,0,3.25,0,4.87,0,.6,0,1.07.06,1,.85s-.48.78-1,.78c-2.23,0-4.46,0-6.68,0-.74,0-1-.27-1-1,0-2,0-4,0-6.08s0-3.85,0-5.78m90.57.13a5.74,5.74,0,0,1,7.27-.46c.4.3.77.6.34,1.15s-.83.76-1.44.27a3.77,3.77,0,0,0-5.59,1.49,7.7,7.7,0,0,0,0,6.47c1.15,2.37,3.44,2.94,5.66,1.52.34-.21.82-.5,1.14-.4.89.27.94,1,.15,1.67a5.84,5.84,0,0,1-8.21-.89,5.76,5.76,0,0,1-1.17-2.5,20.76,20.76,0,0,1-.33-2.6,7.39,7.39,0,0,1,2.15-5.71m-49.82-1.28c.57,0,.88.2.87.83s-.35.82-.9.8h-.51c-2.21,0-2-.23-2,2,0,2.53,0,5.07,0,7.6,0,.88.28,1.25,1.17,1.16.47,0,1,0,1.42,0s.88.2.87.82-.35.8-.9.8h-6.89c-.54,0-.92-.12-.93-.77s.36-.83,1-.86c2.29-.09,2.29-.1,2.29-2.44s0-4.8,0-7.2c0-.84-.28-1.19-1.12-1.12-.44,0-.88,0-1.32,0s-.81-.2-.82-.77.26-.86.85-.85c1.19,0,2.37,0,3.55,0s2.3,0,3.45,0m-64.92,11a3.16,3.16,0,0,1-2.74,2.66,49.05,49.05,0,0,1-5.94.33c-.2,0-.59-.47-.59-.73q-.06-6.24,0-12.48c0-.23.29-.66.44-.66,2.11,0,4.24-.39,6.32.36a3.22,3.22,0,0,1,1.63,4.26A3.29,3.29,0,0,1,73.64,74c-.13.11-.27.19-.55.38.36.28.54.42.73.55a3.77,3.77,0,0,1,1.59,4.16M68,73.1c0,.25.37.67.55.66a16.21,16.21,0,0,0,3.18-.35c.9-.22,1.18-1,1.1-1.92A1.59,1.59,0,0,0,71.43,70c-.59-.12-1.19-.19-1.79-.29-1.7.07-1.7.07-1.7,1.8a9.75,9.75,0,0,0,0,1.62m5.62,4.7A2,2,0,0,0,72.08,76a8.08,8.08,0,0,0-1.38-.3c-2.58-.39-2.76-.23-2.75,2.34a14.1,14.1,0,0,0,0,1.72c0,.26.35.71.5.7a24.08,24.08,0,0,0,4-.5c1-.25,1.23-1.19,1.16-2.14M90,81.35c-.74-1.29-2.06-2.93-2.75-4.25-.53-1-1.41-.65-2.14-.56-.22,0-.49.76-.51,1.19-.07,1.14,0,2.3,0,3.45,0,.69-.27,1-1,1s-.88-.33-.88-.94c0-4.06,0-8.12,0-12.18,0-.29.38-.83.59-.84a38.13,38.13,0,0,1,5.45.15,3.19,3.19,0,0,1,3,2.93A4.27,4.27,0,0,1,90,75.73c-.88.47-.78.9-.38,1.58.8,1.32,1.63,2.54,2.4,3.89.28.49-1.22,1.43-2,.15m-1.6-7.13a1.89,1.89,0,0,0,1.44-1.86A2.26,2.26,0,0,0,88,69.78a2.14,2.14,0,0,0-.62,0c-3.24,0-2.69-.36-2.75,2.37,0,.51,0,1,0,1.52,0,.69.25,1,1,1a19.94,19.94,0,0,0,2.88-.39m126.44.93a7.62,7.62,0,0,1-1.3,5.2c-1.81,2.68-6.2,2.77-7.85,0a9.83,9.83,0,0,1-.18-10.23c1.05-2,2.89-2.43,4.95-2.18a4.39,4.39,0,0,1,3.73,3,15.83,15.83,0,0,1,.65,4.15m-2,.16a8.78,8.78,0,0,0,0-1.45,13,13,0,0,0-.6-2.44,2.77,2.77,0,0,0-2.6-1.8,2.84,2.84,0,0,0-2.55,1.75,8.46,8.46,0,0,0-.57,5.54,6.69,6.69,0,0,0,1.1,2.66,2.36,2.36,0,0,0,3.84.21,5.56,5.56,0,0,0,1.4-4.46M54.56,82.07h0c1.64,0,2.3,0,3.94,0,1.42,0,1.78-.39,1.79-1.91,0-3.35,0-6.85,0-10.2,0-1.39-.46-1.88-1.77-1.9s.29,0-1,0c-2,0-3.67,0-5.68,0-1.31,0-1.73.49-1.73,1.84,0,3.42,0,7,0,10.44,0,1.3.37,1.71,1.56,1.73,1.72,0,1.17,0,2.89,0"></path><rect id="Rectangle_11" data-name="Rectangle 11" class="cls-2" width="281.01" height="82.4"></rect></g></g></g></svg> 