<?xml version="1.0" encoding="UTF-8"?> <svg xmlns="http://www.w3.org/2000/svg" id="Layer_1" data-name="Layer 1" viewBox="0 0 512 512"> <defs> <style>.cls-1{fill:#fff;}</style> </defs> <title>CL_site-icon</title> <rect width="512" height="537.6"></rect> <path class="cls-1" d="M374.09,215.16c-2,.8-4.08,1.47-6.16,2.09a4.55,4.55,0,0,0-1.77,1.36,10,10,0,0,1-7.18,3.3c-1,0-2.08,0-3.12,0-.14,0-.28.16-.41.25.14.08.26.23.41.25a54.29,54.29,0,0,1,8.53,2,5.63,5.63,0,0,1,2.35,1.82,1.11,1.11,0,0,1-.47,1.72,31.07,31.07,0,0,0-4.07,3.33,13,13,0,0,1-9.1,3.13,11.54,11.54,0,0,1-6-1.31,6.47,6.47,0,0,0-3.09-.3,11.33,11.33,0,0,1-1.82,0,1.71,1.71,0,0,0-1.8.72,2.15,2.15,0,0,1-2.24.87c-.86-.07-1.76.1-2.6,0A2.29,2.29,0,0,0,333,235.7,3.6,3.6,0,0,1,330.7,237c-1.74.47-1.94.66-2.7,2.17s-1.49,3-2.24,4.54a5.8,5.8,0,0,1-1.43,2.27c-.26.2-.6.5-.62.77a2.7,2.7,0,0,1-1.06,2.41c-1.55.86-2.49,2.47-4.15,3.17a4,4,0,0,0-1.06.56c-.57.49-1.16,1.07.21,1.28.39,1.19,1.66,1.46,2.42,2.29a2,2,0,0,1,.43,2.12,5.86,5.86,0,0,1-1.86,2.78,3.12,3.12,0,0,0-1.37,1.57,6.76,6.76,0,0,1-2.62,3,11.41,11.41,0,0,0-1.94,1.55,11.15,11.15,0,0,1-3,2.09,52,52,0,0,1-6.82,3c-1,.31-1.19,1.09-1.48,1.72a4.3,4.3,0,0,0-.52,1.57,10.2,10.2,0,0,1-.58,2.39c-.18.88.39,1.91-.5,2.66.69.48.47,1.2.5,1.85a11.1,11.1,0,0,1-1.06,4.76c-.67,1.59-.84,2.87.46,4.37a18,18,0,0,1,2.76,4,15.69,15.69,0,0,0,3.72,4.45,4.28,4.28,0,0,1,1.51,2.24,4.38,4.38,0,0,0,2.44,2.48,2.54,2.54,0,0,1,1.64,2.8,16.44,16.44,0,0,0,0,2.86,6.27,6.27,0,0,1-2.17,5.09,7.11,7.11,0,0,0-2,2.58,3.44,3.44,0,0,1-1.93,2.22,5.24,5.24,0,0,1-3.76-.15,5.21,5.21,0,0,0-2.21-.56c-1.83-.15-3.23-1.45-5-1.87a2.81,2.81,0,0,0-2.3.65c-1.13,1.7-1.82,3.68-3.35,5.12-.34,2-2.11,3-3.31,4.35-.79.9-2.16,1.14-2.6,2.52-.2.6-1.16.84-1.89,1-1.17.19-1.72-.2-1.83-1.45a2.91,2.91,0,0,0-.67-1.57c-.86-1.21-1.71-2.42-2.55-3.63a14.17,14.17,0,0,1-2.35-5,12.37,12.37,0,0,1,.18-5.76,10.53,10.53,0,0,0-.51-6.44c-1.06-2.82-1.85-3.84-4.75-5.83-.91-.62-1.61-1.47-2.46-2.16-1.25-1-2.89-1.08-4.08-2.19a34.77,34.77,0,0,0-3.65-2.44c-1.47-1-3-2-4.47-3.08a48.18,48.18,0,0,0-5-3,2.92,2.92,0,0,0-1.75-.16c-2.38.09-4.65-.15-6.52-1.87-1.21,0-2.42-1.22-3.62-.21-.89.76-2.18.13-3,1-2.11-.22-2.83,1.41-3.82,2.77-1.18,1.63-1.73,3.83-3.94,4.57-1.32,2.67-4,4.18-5.51,6.81-1.77,3.09-4.67,5.29-7.72,7.27a5.06,5.06,0,0,1-4.51.85c-1.62-.63-3.71-1-4.36-3.26a6.81,6.81,0,0,0-2.69-2.75c-.35-.19-.57-.08-.9.09a13.48,13.48,0,0,1-2.84,1.28,11,11,0,0,0-6.57,4.93c-.93,1.39-2.32,2.42-3.28,3.84a3.6,3.6,0,0,1-4.55.87,7.71,7.71,0,0,1-2.9-1.82c-.87-1-1.8-2-3.31-2a.71.71,0,0,1-.61-.4c-1-1.45-2.71-1.89-4-2.91a6.26,6.26,0,0,0-2.24-.84c-.34-.09-.75-.16-1,.49-.31,1-1.36,1.59-1.58,2.74-.09.52-.62,1-.46,1.62.33,1.31-.37,2.51-.65,3.66a28.82,28.82,0,0,1-2,4.11c-.11.25-.38.27-.54.4a11.83,11.83,0,0,0-3.27,3.43A7.49,7.49,0,0,1,159,326a5.69,5.69,0,0,1-6.11.47,3.58,3.58,0,0,0-2.65-.41c-2.61,1-5.26.2-7.88.44-.85.08-2.27-1.32-2.45-2.23-.08-.4.08-1-.15-1.22-1.73-1.48-.54-3.43-.9-5.11,1.28-1.49.32-2.72-.65-3.7a3,3,0,0,1-.92-2.51,22,22,0,0,0,0-2.6,6.15,6.15,0,0,1,1.82-4.45c.44-.53,1-1,1.46-1.48a7.23,7.23,0,0,0,2-3.34,21.51,21.51,0,0,1,2.6-4.89,1.41,1.41,0,0,1,1-.74c.88-.17,1.11-1.4,2-1.5,1.25-.16.14-1.45,1-1.8.25-.1.22-.72.56-1,2.3-2.19,3.77-5,5.55-7.58a1.49,1.49,0,0,0,.26-.94,18.43,18.43,0,0,0,0-2.08,2.9,2.9,0,0,1,1.29-2.86,12.29,12.29,0,0,1,2.58-1.92c1-.47,1.58-1.16,2.92-3.16.86-1.28,1.68-2.52.52-4,0-.05,0-.17,0-.25,0-1.21-.06-2.43,0-3.64s-.73-2.2-.56-3.43c.38-2.87.53-5.79,2.91-7.91.67-2,2.59-2.44,4.17-3a38.71,38.71,0,0,0,4.17-1.25c1.25-.62,2.59-.91,3.81-1.49a5.34,5.34,0,0,0,2.11-2,13.3,13.3,0,0,0,1.81-4.18,3.12,3.12,0,0,0,0-1.65,8.58,8.58,0,0,1-.15-3.56,2,2,0,0,1,1.49-1.56c1.45-.45,2.18-1.94,3.65-2.4.9-.28.88-1.75,2-2,0-.78.46-1,1.15-.87,1,.17,2-.38,2.93.49.18.18.8,0,.67.5-.37,1.33,1.1,1,1.45,1.71s.76.27.88-.1c.25-.76,1-1.18,1.28-1.82a7.41,7.41,0,0,0,.35-5.4,15.79,15.79,0,0,1-.16-5.58,4.5,4.5,0,0,1,1.34-2c.56-.59,1.4-.63,1.84-1.26a3.5,3.5,0,0,1,1.23-1.31,5.23,5.23,0,0,0,2.18-3.47c.92-3.44,3.34-5.75,5.82-8,.66-.59,1.76-.75,2.48-1.51s1.88-.24,2.33-1.3c0-.09.31-.13.46-.11,1.47.2,2.69-.57,4-.95a1.81,1.81,0,0,0,1.55-2,4.42,4.42,0,0,1,.75-2.57,2.07,2.07,0,0,0,.33-1.43c-.17-1.58.64-2.65,1.62-3.77a37.7,37.7,0,0,0,4.08-5.34c1.13-1.9,3-2.19,4.74-2.61a19.82,19.82,0,0,1,2.85-.05c2.15-.18,4.4-.33,5.81-2.23.52-.7,1.61.3,1.81-1,.11-.73.92-1.33,1.28-2.06s.88-1.21.74-2a.75.75,0,0,1,.58-.77c1.35-.32,1.32-2.06,2.88-2.41a11.22,11.22,0,0,0,7.27-5.05,8.25,8.25,0,0,1,2.62-2.82c1.21-.71,1.18-2.27,1.67-3.44.26-.62.27-1.34,1-1.6.86-.32,1.6.27,2.38.51.44.13.36.5.36.83,0,.87,0,1.73,0,2.83a9.87,9.87,0,0,0,.57,4.48,20.72,20.72,0,0,0,1.86,3.39.67.67,0,0,0,.19.19c.52.39,4.21.4,4.7-.06a5.73,5.73,0,0,1,3.17-1.83c1.12-.16,1.42-1.51,2-2.4.12-.19,0-.51,0-.77a2.11,2.11,0,0,1,.87-1.88,4.11,4.11,0,0,1,2.53,0,1.06,1.06,0,0,1,.73,1.44c-.35.68,1,1.09.17,1.72a2.13,2.13,0,0,1,.37,1.81c-.25.8.4,1.24.57,1.87.42,1.61.64,1.55,2.24,1,2.66-.92,4-3.29,6-5,.3-.27.38-.68.91-.9a3.13,3.13,0,0,0,1.46-1.43c.83-1.67,2.35-2.67,3.54-4a28.3,28.3,0,0,1,2-2c.73-.67.5-1.7,1-2.44,1.82-2.63,3.25-5.47,6.06-7.4,1.55-1.06,3.41-2,4.41-3.75,2,.25,2.33-2.46,4.26-2.28a12.9,12.9,0,0,1,3.64-2.5.82.82,0,0,0,.37-.89c-.15-1.59,0-3,1.43-4.13.55-.41.66-1.41,1.11-2.11.86-1.35,1.1-3,2.17-4.32.95-1.18,1.47-2.89,2.63-3.77a10.38,10.38,0,0,0,1.81-2.09A4.2,4.2,0,0,1,328,119c1.52-.3,1.68-.61,2.13,0a2.13,2.13,0,0,1,.61,1.37,8.21,8.21,0,0,1-.15,1.22l-1,1c-.64.65-1.27,1.31-1.95,1.91-2,1.79-3.24,4.13-4.51,6.46-.55,1-.66,2.27-1.41,3a5.09,5.09,0,0,0-1.66,4.53,2.34,2.34,0,0,1-1.48,2.66c-.87.41-1.47,1.41-2.61,1.24-1,1.5-3.14,1.55-4.22,3.1-.36.51-1.48.48-1.86,1a5.14,5.14,0,0,1-1.65,1.63,16.87,16.87,0,0,0-5.86,5.82c-1,1.49-1.76,3.08-2.59,4.65-.53,1-1.57,1.56-2.08,2.48s-2.26.91-2.28,2.39c-1.2.25-1.5,1.43-2.24,2.1A7.41,7.41,0,0,0,291.4,168a1.23,1.23,0,0,1-.52.56c-1.78.81-2.87,2.4-4.16,3.73a7.84,7.84,0,0,1-1.88,1.18c-1,.59-4,.72-5.23.59a2,2,0,0,1-.87-.43c-1.2-.71-1.31-2.07-1.88-3.14-.16-.3-.25-.81-.57-.58-1,.73-2.51.6-3.25,1.52-.86,1.08-2.39.84-3.15,2-.13.18-.63.13-1,.13-1,0-1.91,0-2.86,0a4.39,4.39,0,0,1-4-2.12c-.78-1.58-2.32-2.79-2.43-4.72,0-.61-.53-.58-.92-.26a3.64,3.64,0,0,0-.91.92,13.45,13.45,0,0,1-3.6,3.72c-1.4,1.12-3.21,1.26-4.47,2.47-1.13-.16-1.27.75-1.74,1.43-.35.51-.09,1.06-.35,1.42a40.79,40.79,0,0,1-5.13,5.69c-1.27.06-2.09,1.12-3.33,1.42a15.58,15.58,0,0,1-5,.41,4.78,4.78,0,0,0-4.66,2.45,39.73,39.73,0,0,1-2.62,3.6c-.85,1.05-2,2.14-2.06,3.53a18.34,18.34,0,0,1-1,5.05c-.74,2.13-1.07,2.76-3.22,3.08-.42.06-.87,0-1.14.4-.43.72-1.12.68-1.82.65-.51,0-1,.36-1.38.37-1.53.07-2.47,1.22-3.72,1.78-1.79.79-4.3,4-4.94,5.9-1,3-2.49,4.91-5.45,7.08-.51.38-1.31.78-1.28,1.52a16.38,16.38,0,0,0,.27,4.29c.57,1.89.22,3.93.12,5.89a2.29,2.29,0,0,1-.67,1.25c-1,.89-1.5,2.22-2.4,3.16s-2.05,1.93-3.33,1.43c-.76-.29-1.89-.18-2.38-1.18a.55.55,0,0,0-.87-.15,18.85,18.85,0,0,1-4.15,1.93,2.51,2.51,0,0,0-1.75,2.7,6.47,6.47,0,0,1-.87,4.33,7.93,7.93,0,0,0-.68,2,7.74,7.74,0,0,1-5.6,5.51c-2.94.85-5.56,2.57-8.59,3.16a1,1,0,0,0-.41.28,8.34,8.34,0,0,0-2.56,4.92c-.11.77,0,1.57,0,2.34s1.18,1.41.07,2.15c1,2,.23,4.21.46,6.31A4.93,4.93,0,0,1,166,274c-1.31,1.34-2.65,2.66-3.9,4.07-1.67.17-1.44,1.44-1.35,2.51a4.09,4.09,0,0,1-1.55,4.07,10,10,0,0,0-1.62,2.19,54.82,54.82,0,0,0-3.71,5.74,13.66,13.66,0,0,1-2.81,3.24c-.19.16-.69,0-.75.44-.13,1.07-1,1.53-1.74,2.1a4,4,0,0,0-1.36,2.29,10.43,10.43,0,0,1-3.05,5.25,10.42,10.42,0,0,0-2.37,3.44c-.51,1.17-.78,2.44.3,3.5.35.34.25.87.45,1.1.8,1,.14,2.2.68,3.11.33.55.36.79,0,1.29-.84,1.11-1.14,2.26.29,3.22.09.06.08.33.05.49-.09.68.2.87.87.87,2.6,0,5.21,0,7.81,0a4.85,4.85,0,0,1,3.3.82.73.73,0,0,0,1.25-.26c1.15-2.43,3.13-4.17,5-6a3.15,3.15,0,0,0,1-1.67c.2-2.4,1.36-4.52,1.71-6.88a7.52,7.52,0,0,1,3-4.45c.83-.68,1.83-.16,2.74-.29.51-.07,1,0,1.56,0a6.26,6.26,0,0,1,4.67,1.92,10.22,10.22,0,0,1,1.46,1.48,3,3,0,0,0,1.65,1.06,10.08,10.08,0,0,1,5.21,3.16c.26.31.81.32.84,0,.14-1.15,1.27-1.51,1.73-2.42a18.15,18.15,0,0,1,5.06-4.85c1.42-.75,2.82-1.54,4.29-2.2,2.51-1.13,6.67-1.2,9.16.23a2.53,2.53,0,0,1,1.3,1.3,11.27,11.27,0,0,0,.81,1.5c.9,1.4,1.81,1.6,3.43,1.08,1-.33,1.13-1.53,1.85-1.7,2-.45,2.34-2.48,3.74-3.45,1.78-3.4,4.67-5.88,7.18-8.68a32.68,32.68,0,0,0,3.1-4.2c1.09-1.68,2-3.61,4.48-3.53.12,0,.24-.22.39-.3a10.25,10.25,0,0,1,5.73-1.26,10.7,10.7,0,0,0,2.34,0,7.31,7.31,0,0,1,4,1c.61.27.81,1.3,1.64,1s1.63.94,2.06.47c.79-.85,1.13.49,1.73.08,1.27-.86,2.28.18,3.15.73,2.91,1.84,5.63,4,8.55,5.8,1.31.81,2.33,2,3.91,2.48a12.09,12.09,0,0,1,4,2.29c5.54,4.32,4.54,3.13,7.62,7.73a5.57,5.57,0,0,1,1,3.23c0,1.74,0,3.47,0,5.21a26.57,26.57,0,0,1,0,2.86,9.83,9.83,0,0,0,1.58,6.65,8.86,8.86,0,0,1,.52,1.08,8,8,0,0,0,1.71,1.89.7.7,0,0,0,.67.07c.51-.56,1.53-.47,1.78-1.29.66-2.2,2.65-3.49,3.63-5.52a9.64,9.64,0,0,1,1.55-2.76c.17-.17,0-.56.42-.79,2.35-1.46,4.66-2.18,7.42-.87,1.34.64,2.61,1.85,4.37,1.44.29-.06.65.39,1.06.53,1.25.44,1.43.56,1.83-.53a8.5,8.5,0,0,1,2.4-3.17,1.81,1.81,0,0,0,.77-1.78c-.07-.33-.16-.84,0-1,1.23-1.26.16-2-.61-2.73s-2.2-1.62-2.41-2.62a4.66,4.66,0,0,0-1.65-2.45,12.81,12.81,0,0,1-3.65-5c-.16-.47-.49-.67-.75-1-.91-1.1-1.87-2.17-2.74-3.3a2.42,2.42,0,0,1-.66-1.52c.3-2-1-4.16.91-5.87.14-.12.08-.48.08-.73a28.84,28.84,0,0,0,0-3.9c-.18-1.32.82-2.39.57-3.7a2.75,2.75,0,0,1,.41-1.64,6,6,0,0,0,.68-2.08c.15-1.81,1.87-2.83,2.72-4.32a.28.28,0,0,1,.22-.08c1.33.21,2.25-.84,3.44-1.16a14.46,14.46,0,0,0,5.35-2.69,37,37,0,0,0,6.09-6,1.39,1.39,0,0,0-.41-2.15c-1.29-1-2.26-2.08-1.88-3.88.13-.58-.25-1.29.2-1.73.79-.76,1.38-1.76,2.46-2.2s3.81-2.44,4-3.32c.5-2.14,2.53-3.41,3-5.54,1.22-.58,1.34-1.89,1.76-2.91A5.79,5.79,0,0,1,329,233.8c.81-.17,2-.54,2-2.13,0-.88,1.13-1.58,2.36-1.45a29.91,29.91,0,0,1,3.11.06c1.31.29,1.92-.9,3-1.08.08,0,.19,0,.26,0,1.94-1,4-.32,6-.52.55,1.08,1.68.3,2.53.85a9.18,9.18,0,0,0,5.72,1.24,9.75,9.75,0,0,0,6.79-3.08,3.41,3.41,0,0,0,.28-.37,1.53,1.53,0,0,0-.43-.2c-2.38-.32-4.63-1.52-7.11-1-.53.1-.75-.31-1.06-.59-1.48-1.28-1.43-3.05-1.16-4.68a2.53,2.53,0,0,1,2.1-2c1.68-.1,3.25-.75,5-.63a6.66,6.66,0,0,0,5.11-2.05,11.18,11.18,0,0,1,6.25-3.14,6.62,6.62,0,0,0,2.71-1,6,6,0,0,1,4-.79c2,.45.13,3.55-2.42,3.92"></path> <path class="cls-1" d="M121.82,336.44c.86.25,1.79-.33,2.69.4s2,2.15,3.66,1.67a15.82,15.82,0,0,1,2.34,2.1c.82,1.08,1.91,2.14,1.6,3.74.7.58.49,1.38.53,2.12s0,1.38-.66,1.81c-.45.27-.39.71-.39,1.14a33.32,33.32,0,0,0,0,3.89c.22,1.78-.82,2.67-2.1,3.41a8.84,8.84,0,0,0-2.44,1.64,2.94,2.94,0,0,1-2.49.48,8.67,8.67,0,0,0-9.09,4.06c-.4.6-.6,1.18-1.42,1.13-1-.06-2,.28-2.81-.78s-.71-1.62.3-2.32c.22-.16.84,0,.74-.42-.28-1.16.73-2,.58-3.17-.29-2.21.85-3.95,2.12-5.6a11.67,11.67,0,0,0,1.15-1.6,1.74,1.74,0,0,0,0-1.82c-1.2-2.65-.6-5.5-.74-8.27,0-.33.22-.44.39-.62a3.1,3.1,0,0,1,.56-.55c.72-.48.59-1.73,1.49-1.9,1.29-.25,2.55-.92,3.94-.55m-4,19.78c1,.18,1.84-.7,2.9-.54a5.27,5.27,0,0,0,4.25-1,3,3,0,0,1,1.05-.58c1.61-.43,1.91-.9,1.94-2.42a14.16,14.16,0,0,1,.46-4.73c.17-.46.54-1,.41-1.52a5.11,5.11,0,0,0-3-3.71,6.22,6.22,0,0,1-2.9-1.75c-.41-.5-.91-.42-1.4-.39a2.66,2.66,0,0,0-2.42,2.75c-.11,2.54.69,5,.6,7.57a11.72,11.72,0,0,1-1.15,4c-.2.52-.81.88-1.24,1.3a.67.67,0,0,0-.2.89c.16.3.46.15.7.18"></path> <path class="cls-1" d="M378.28,402.57c.4-3-.87-5.75-.44-8.56.09-.62-.37-.93-.58-1.33a3.45,3.45,0,0,1-.47-2.15c.11-.8,1-.79,1.43-1.2a5.32,5.32,0,0,1,3.61-1.36c1.31,0,1.69.33,1.71,1.6,0,1.65,0,3.29,0,4.94a2.78,2.78,0,0,1-.33,1.43,2.29,2.29,0,0,0,.08,2.41,5.44,5.44,0,0,1,.78,3.58,3.45,3.45,0,0,0,.37,2.06c-.75.45,0,1.57-.88,2-.09,0,0,.45.19.67,1,1,.83,2.3.84,3.55s-.07,2.26,0,3.38a4.42,4.42,0,0,1-.69,2.83c-.37.57-.62,1.23-.19,1.58.95.74.8,1.4.38,2.34-.23.5,0,1.2-.06,1.8s.51,1.37.39,1.52a1.71,1.71,0,0,0-.36,1.43c.33,2.73-.63,5.22-1.41,7.75a1.42,1.42,0,0,0-.15.71c.5,1.71-.91,3-1.11,4.51-.06.48-.72.92-1.14,1.33a31.59,31.59,0,0,0-5,6.76c-.11.19,0,.55-.3.63-1.54.51-2.6,1.72-3.85,2.62-2.53,1.83-5.54,2.55-8.39,3.6-2.35.87-4.18.6-7.63.1a6.63,6.63,0,0,1-4.06-1.59c-.73-.71-2-.43-2.83-1.3a6,6,0,0,0-2.51-2.07,1,1,0,0,1-.63-1,6.29,6.29,0,0,0,0-1.82c-.33-1.62,1-2.26,1.82-3.15.23-.24.66-.05.86.27a11.27,11.27,0,0,1,1,1.68,18.49,18.49,0,0,0,3.09,4.44c.43.54.92,1.06,1.73.83.6-.17.91.34,1.35.53a4.16,4.16,0,0,0,2.13.54c.65-.06,1.35-.19,1.91.46a1,1,0,0,0,1.18-.15c.33-.42.75-.35,1.17-.33,3.56.12,6.27-1.67,8.8-3.89a27.32,27.32,0,0,1,3.6-3.21,3.84,3.84,0,0,0,1.54-2.66c.12-1.59,1-2.72,1.57-4.06a5.57,5.57,0,0,0,.62-1.31c.08-.44-.53-.41-.37-1a17.28,17.28,0,0,0,.88-5.63,5.46,5.46,0,0,1,.78-3.84,3.44,3.44,0,0,0,.13-3.22,5.12,5.12,0,0,1-.38-2.7c.1-1.85-.48-3.76.36-5.56.07-.16.13-.27-.1-.36s-.43-.1-.49,0c-.41.59-1.2.49-1.67,1a11.63,11.63,0,0,1-4.43,3.1,3.45,3.45,0,0,0-1.33,1.16c-1.09,1.34-2.65,2.1-3.87,3.27-1,1-2.62.73-3.87,1.3-3.12,1.41-5.94,0-8.74-1.07-1.17-.45-2.65-2.77-3-3.9s1.1-2.06.93-2.93-1.32-1.64-.87-2.69c.23-.55.24-1.27.52-1.59,1.22-1.38,1.09-3,1-4.55a12,12,0,0,1,.68-3.66,9,9,0,0,0,.38-2.67c-.15-1.46.91-2.74.55-4.21.94-.72.39-1.23-.2-1.84-1.22-1.27-1.06-2.71.57-3.09,2-.46,3.47-1.68,5.27-2.37,1.47-.55,2.22,0,2.2,1.51,0,.61-.46.84-.59,1.34-.86,3.5-2.17,6.91-2,10.59,0,.65-.37,1.18-.73,1.21-.63.07-.91.75-1.57.69-.23,0-.37.28-.33.57s.19.5.49.44c1-.23,1.34.4,1,1.16-.59,1.47-.31,3-.55,4.47a9.87,9.87,0,0,0-.46,2.65c.07.72-.37,1.46-.25,2s.81,1,1,1.64l1.26,1.26a5.29,5.29,0,0,1,2,1.47,1.08,1.08,0,0,0,1.75.08c.53-.56,1.17-.53,1.78-.77a20.92,20.92,0,0,0,7-4.36,17,17,0,0,1,2.7-2.25c.73-.44,1.86-.81,1.67-2.1,0-.11.24-.24.32-.39,1.13-2.25,2.09-4.54,1.51-7"></path> <path class="cls-1" d="M187.47,389.88c-.62,2.44-1.14,4.92-1.91,7.31-.39,1.2-.66,2.55-1.79,3.42-.66.51.43.8.17,1.46a52.85,52.85,0,0,0-1.53,5.09c-.69,2.4-1.53,4.74-2.28,7.11a21.07,21.07,0,0,0-.62,4.17,1.15,1.15,0,0,1-.6,1c-1.5.6-2.32,2-3.44,3a.84.84,0,0,1-1.28.08c-1.68-1.18-2.06-3.14-3-4.75.76-1.18-.23-1.71-.89-2.32-1.13-1.05-1-.79-2.17-4.57a8.72,8.72,0,0,0-.66-1.8,2.33,2.33,0,0,1-.09-2.54c.24-.53.54-1.1-.57-1.5a3.13,3.13,0,0,1-1.83-2.78c0-.59-.61-.8-.58-1.35,0-.14-.13-.29-.2-.43-.1.1-.28.19-.29.3-.21,2.12-1.11,4.06-1.62,6.1-.6,2.41-1.56,4.73-2.3,7.1-.49,1.54-.92,3.1-1.27,4.67a4.61,4.61,0,0,1-1.39,2.28c-1.13,1.17-2.66,1.28-3.84,2.15-.52.38-.4-.05-.53-.32-1.35-2.66-2.75-5.29-3.15-8.33a4.25,4.25,0,0,0-1.14-2.36,5.24,5.24,0,0,1-1.41-4.64c.06-.74-.14-1.06-.88-1.47-1.35-.75-1.66-2.4-2.19-3.73a12.53,12.53,0,0,0-1.75-3.67c-1.72-2-1.79-4.71-3.43-6.67a.68.68,0,0,1,0-.67,16.5,16.5,0,0,1,1.89-1.71c.65-.48,1.49-.61,2.09-1.23s1.62-.29,2.43-.27c.27,0,.11.48.23.65,1,1.45,1.08,3.23,1.46,4.85.23,1,1.28,2,.14,3.25-.29.31.41,1,1.09,1.08.49.06,1.27-.26,1.4.27.17.72.7,1.25.62,2.12a10.32,10.32,0,0,0,1.78,6,23.19,23.19,0,0,1,1.31,3.87c.49,1.36.74,2.82,1.84,3.93.63.63.92.17,1.11-.2a6,6,0,0,0,1.05-2.65c-.1-1.92,1-3.48,1.19-5.26.13-1.15,1.3-1.94,1.09-3.19.75-.48.46-1.23.47-1.88A5.43,5.43,0,0,1,162,396.4c.37-.31.29-.48,0-.75a1.49,1.49,0,0,1-.69-1.28,7.08,7.08,0,0,0-.45-3.45c-.29-.63-.12-1.34.93-1.65,1.38-.41,2.51-1.46,4.14-1.34a2.1,2.1,0,0,1,2.08,1.52c.16.81.8,1.44.64,2.38-.21,1.24,1.09,2.54.4,3.63a1,1,0,0,0,.13,1.41c1.5,1.64,1.94,3.76,2.5,5.74.93,3.26,2.63,6.24,3.27,9.6a2.88,2.88,0,0,0,.67,1.27c.29.31.6.77,1.05.5s.84-.48.77-1A10.48,10.48,0,0,1,179,406.4c1.17-2.15.52-4.74,2-6.73.12-.17.05-.52,0-.77-.37-2.06.85-4,.53-6,.71-.94.17-2.29,1.12-3.19a7.72,7.72,0,0,1,3.21-1.69c1.07-.31,1.38,0,1.4,1.06,0,.26,0,.52,0,.78l.18,0"></path> <path class="cls-1" d="M268,389.84a21.15,21.15,0,0,1-1.18,5.24,11,11,0,0,0-.9,3.26.58.58,0,0,1,0,.26c-.47,1.11-1.78,1.81-1.56,3.26.19,1.21-.54,2.21-.8,3.31-.74,3.14-1.94,6.14-2.81,9.24a17,17,0,0,0-.44,2.91,3.3,3.3,0,0,1-1.5,2.5,15.28,15.28,0,0,0-1.3,1.28c-2.21,2.21-2.28,2.26-4.16-.21a15.85,15.85,0,0,1-1.49-3.27c.89-.85,0-1.23-.45-1.72-.18-.2-.36-.38-.55-.56a5.33,5.33,0,0,1-1.67-3.23,14,14,0,0,0-1.53-4c-.26-.51-.39-.67,0-1.16.81-.92.69-.93-.41-2-.84-.78-2-1.43-1.69-2.94.11-.5-.69-.74-.55-1.33,0,0-.16-.18-.17-.17s-.27.18-.3.29c-.54,2-1,4.09-1.59,6.11a34.64,34.64,0,0,1-2.26,6.86c-.82,1.53-.65,3.18-1.31,4.67-.28.62-.89,1.26-.61,2.09-1.07.22-1.52,1.57-2.4,1.69s-1.74.51-2.63.61c-.36,0-.7,0-.66-.53,0-.17.08-.41,0-.51-2.06-2.3-2-5.43-3.08-8.09a2.88,2.88,0,0,0-.4-.88,6.62,6.62,0,0,1-1.71-5.27c.1-.82-.18-1.22-1-1.68-1.24-.7-1.69-2.17-2.12-3.49a9.07,9.07,0,0,0-1.72-3.47,9.61,9.61,0,0,1-1.87-3.62,6.12,6.12,0,0,0-1.29-2.6c-.51-.56-.42-1.12.07-1.79,1-1.42,2.87-1.65,4.06-2.87a2.17,2.17,0,0,1,2,0c.45.24.71,1.06.82,1.67a20.73,20.73,0,0,0,1.44,5.13,1,1,0,0,1,0,.9c-.55,1.57-.32,2,1.25,2.08.74,0,.84.43,1.19.9a2.58,2.58,0,0,1,.34,1.7,15.41,15.41,0,0,0,1.79,5.77,38.69,38.69,0,0,1,1.36,3.85c.52,1.35.67,2.84,1.78,4,.54.55.85.44,1.11-.07a7.82,7.82,0,0,0,1.07-2.66,22.44,22.44,0,0,1,1.19-5c.17-.55.4-1.06.56-1.6.55-1.81,1.33-3.54,1.11-5.55-.12-1.08.8-1.95,1.61-2.69.24-.22.57-.45.1-.73-.82-.49-.7-1.28-.73-2s.19-1.65-.47-2.42c-.24-.29-.11-1,0-1.5s.71-.23,1.07-.53a8.52,8.52,0,0,1,1.94-1,3.54,3.54,0,0,1,3.9.66c.6.6,0,1.46.39,1.9a1.93,1.93,0,0,1,.4,1.91c-.15.79.47,1.23.65,1.85.27.93-1.12,1.28-.47,2.09.43.53,1.11.92,1.38,1.51a21.84,21.84,0,0,1,1.56,4.29c.73,3.32,2.48,6.3,3.18,9.62.08.37.45.62.56,1.08s.57,1,1.15.77,1.23-.79.83-1.37c-1.11-1.61.91-2.65.56-4.06.84-.77.78-1.95,1.3-2.84a5.34,5.34,0,0,0,.79-3.33c0-.41-.09-1,.14-1.22,1.08-1.21,1-2.65.87-4.06-.06-1,.65-1.85.6-2.91a4.81,4.81,0,0,1,.27-2.74c.45-.87.59-1.68,1.66-2.18a13.33,13.33,0,0,1,2.34-1.27c1.09-.26,1.38,0,1.4,1.07,0,.26,0,.52,0,.78"></path> <path class="cls-1" d="M114.53,371.93c2.57.25,5-1,7.59-.63,1.06.16,2.13-.1,3.19.48.82.45,2-.35,2.92.52.27.26,1,0,1.52.06a2.66,2.66,0,0,1,1.83,1.52,1.38,1.38,0,0,1-.71,1.52,12.62,12.62,0,0,1-1.58,1.21,2.56,2.56,0,0,1-2.54.08c-.72-.32-1.4-.95-2.31-.69-.25.07-.63,0-.64-.26-.1-1.93-1.39-.85-2.08-.73-1.25.22-2.25-.6-3.43-.58-1.82,0-3.64,0-5.46,0a6.62,6.62,0,0,0-1.89.44c-2.24.65-4.38,1.61-6.64,2.22a2.61,2.61,0,0,0-1.66,1,1,1,0,0,1-1.09.49c-1.15-.11-1.79.37-1.72,1.6,0,.31-.18.4-.44.49-2.38.83-3.58,3.05-5.42,4.52-.62.49-.19,1.13-.52,1.62a17.18,17.18,0,0,0-.91,1.7c-.24.46-.56.93,0,1.39-.93,1.76-.37,3.66-.52,5.5-.19,2.35-.18,2.34.91,4.13.24.41.28.8-.37.91-.83.14-.71.66-.26,1,1.19,1,1.64,2.42,2.32,3.73a27.68,27.68,0,0,0,5,7.29,9,9,0,0,0,1.81,1.29c.59.34.51,1.26,1.44,1.47,1.16.26,2.21,1,3.36,1.26a2,2,0,0,1,1.26.72c.68,1,1.86,1.08,2.82,1.35,2.34.66,4.8.86,7.15,1.58a4.46,4.46,0,0,0,2.82,0,8.13,8.13,0,0,1,5.14-.16,3.55,3.55,0,0,0,1.74-.41c.4-.16.93-.6,1.28-.61,2.32-.09,4-1.71,6.07-2.33a5.8,5.8,0,0,0,2.81-1.4,1.14,1.14,0,0,1,1.2-.2c.56.14.31.7.33,1.09.08,1.36-.63,2.5-1,3.73-.08.26-.28.34-.58.37a11.91,11.91,0,0,0-3.77.94c-1.19.52-2.51.49-3.73,1a5.62,5.62,0,0,1-2.56.07,12.44,12.44,0,0,0-5.09.89,3,3,0,0,1-1,.15c-2.43,0-4.85,0-7.28,0a1.57,1.57,0,0,1-1.32-.6c-1.07-1.2-1.08-1.2-2.81-.18-.18.11-.25.23-.38.11-.76-.78-1.86-.54-2.77-.83-1.76-.56-3.51-1.2-5.3-1.67-1-.27-1.74-1.15-2.71-1.61a9.9,9.9,0,0,1-2.31-1.86,5.69,5.69,0,0,1-1.74-2,1.92,1.92,0,0,0-1.08-1.08c-1.32-.34-1.09-1-.54-1.82.28-.42.27-1-.25-.9-1.85.45-2.33-1.21-3.18-2.06-2.05-2.06-2.46-5-3.62-7.58a3.24,3.24,0,0,1-.07-1.27c0-1.65,0-3.3,0-4.94a2.62,2.62,0,0,1,1.07-2.67c.7-.43.15-.74,0-1.15A1.63,1.63,0,0,1,87,390c.81-1.57,1.49-3.2,2.25-4.79.18-.38,0-1,.86-1,.36,0,1-.6,1.07-1,.25-1.3,1.66-1.32,2.19-2.19s1.54.08,1.69-.76.71-.92,1-1.4a6.29,6.29,0,0,1,3.46-2.29,37.07,37.07,0,0,0,3.53-1.55c2.58-1.09,5.16-2.22,7.82-3.08a12.17,12.17,0,0,1,3.58-.06"></path> <path class="cls-1" d="M412.62,392.66h-2.55c-.26,0-.67-.09-.75,0-1,1.44-2.5.73-3.74,1.07-.89.24-2,.21-2.65,1.12-.21.3-.58.28-.87.41-1.67.72-2.72,1.82-2.42,3.88a3.27,3.27,0,0,1-.41,2.69,2.52,2.52,0,0,0,0,2.26c.74,1.32.41,2.65.43,4,0,1.49.32,3-.48,4.47a.61.61,0,0,0,0,.51c1,1.78.13,3.81.79,5.66s.3,2.16-1.44,2.59c-1.07.27-2.27.33-3.1,1.33a1,1,0,0,1-1.38,0c-.43-.32-.86-.78-.58-1.3.89-1.62.34-3.33.5-5,0-.49-.19-1,.34-1.42a1,1,0,0,0,.13-1.2c-.77-1.29-.49-2.43,0-3.78.38-1.08.06-2.4.08-3.61,0-.77-.31-1.69.94-2,.23,0,.19-.84-.46-.8s-1.06-.16-1-1c.07-1.47-.07-3,.06-4.42.06-.66-.76-1.83.79-2,.23,0,.23-.21.06-.36-.94-.79-.55-2.22-1.47-3-.74-.64-.67-1.27,0-2a13.84,13.84,0,0,1,3.82-2.73,1.63,1.63,0,0,1,2.24.41c.23.51,1,1,.32,1.85a1.83,1.83,0,0,0,.43,2.1c.22.24,0,1,.64.31.91-.93,1.85-1.83,2.75-2.76a2.76,2.76,0,0,1,2.68-1,2.91,2.91,0,0,0,2.53-.47,4.66,4.66,0,0,1,4.52-.24c.36.17.63.25.89-.06a1,1,0,0,1,.92-.32c2.93,0,5.56,1.13,8.23,2.11.34.13.59.59.81.93.42.69.54,1.55,1.23,2.09a.67.67,0,0,1,.34.64c-.22,1.93.45,3.92-.39,5.82a1.28,1.28,0,0,0-.11,1,3.12,3.12,0,0,1,0,3.5,1.64,1.64,0,0,0,0,1.27c.71,1.71.12,3.58.58,5.23.77,2.81.22,5.6.45,8.39a1.55,1.55,0,0,1-1.21,1.88c-1.05.34-2,1.06-3,1.49-.44.19-.79,1.07-1.5.32s-1.33-1.19-1-2.17.24-2,.67-2.55c.63-.84-.18-2,.81-2.57.08-.05,0-.53-.09-.67-1.68-1.77-.92-3.86-.61-5.78a6.75,6.75,0,0,0,.17-2.46c-.56-2.64-.45-2.82-.08-5.62a11.46,11.46,0,0,0-.7-4,10.45,10.45,0,0,0-.9-2c-.32-.65-.56-1.43-1.57-1.11-1.36-1.41-3.12-1-4.56-1"></path> <path class="cls-1" d="M342.94,357.12c-.08,1.73.38,3.54-1,5.07a1,1,0,0,0,.25,1.38c1.06.87.83,1.77.24,2.89-.45.86-1.21,1.88-.16,3,.27.28.1,1,.11,1.49,0,2.86,0,5.72,0,8.58,0,1.33.14,2.65-.8,3.84a2.61,2.61,0,0,0-.07,2.42c0,.15.32.23.34.38.2,1.1-1.14,2.21-.41,3.09a3.85,3.85,0,0,1,.95,2.76c0,2.77-.08,5.55,0,8.31a12.6,12.6,0,0,1-.56,3.17c-.2,1,.41,2-.45,2.94-.35.37.09.92.44,1,1.07.28,1.1,1,1.06,1.89-.1,2.8.76,5.53.57,8.36-.06,1-.76,1.68-.6,2.64,0,.26-.23.33-.48.44-1.66.81-3.28,1.71-4.94,2.53a.86.86,0,0,1-1.33-.81,20.11,20.11,0,0,1,.06-4.66c.63-2.71.37-5.41.46-8.11a1.58,1.58,0,0,1,.24-.95,2.05,2.05,0,0,0,0-2.11,4,4,0,0,1,.24-3.59c.31-.57,1.31-1.47-.36-1.69.34-.92-.92-1.47-.35-2.72a11.57,11.57,0,0,0,.79-4.63c0-2.18-.63-4.43.45-6.55.14-.27-.17-.44-.33-.63a4.47,4.47,0,0,1-.71-3.09,30.49,30.49,0,0,0,0-3.89,7.8,7.8,0,0,1,1.19-5.23c.6-.88-.06-.55-.39-.8s-1.31-.79-.42-1.6a.55.55,0,0,0,0-.88c-1.49-1.42-.94-3.14-.53-4.73.2-.77.44-1.71.14-2.2-.68-1.07-.43-2.15-.42-3.21,0-1.61-.76-3.08-.59-4.73a4.21,4.21,0,0,1,2.62-3.93,7.29,7.29,0,0,0,2.45-1.63c.57-.64,1.7-.37,1.67.42,0,1.29.84,2.38.6,3.69a11.74,11.74,0,0,0,0,2.07"></path> <path class="cls-1" d="M299.21,375.12c-.3.92.55,2.22-.51,3.23,1.13,1.47.33,3.16.48,4.73s0,3.12,0,4.68a2.75,2.75,0,0,1-.73,2.33c-.44.41-1,1.4.48,1.58.38,0,.24.59.24.91q0,3.9,0,7.81c0,.33,0,.76-.14,1a2.37,2.37,0,0,0,0,3.44,1.56,1.56,0,0,1,.11,1.46c-.77,1.11-.51,2.31-.44,3.45s-.41,2.26-.11,3.49a18.7,18.7,0,0,1,.07,3.88c0,1.13.4,1.55,1.45,1.59.78,0,1.56,0,2.34,0a6.7,6.7,0,0,1,2.42.43,3.15,3.15,0,0,0,2.71.19c1.08-.49,2.56,0,3.85-.12,1.67-.1,3.33.25,5-.41.67-.26,2.24-.86,2.65.84.83.09,1.89.5,2.4-.2.73-1,1.79-.43,2.52-.9a1.83,1.83,0,0,1,2.32,0c.44.31.5-.26.72-.42a3.35,3.35,0,0,1,3.19-.85c1.23.42,1.18.49.41,1.5-.37.49-1.83.65-.84,1.81-.64.51-1,1.43-2.08,1.26-.34-.05-.82-.16-1,0-1.52,1.33-3.2.57-4.84.53-.89,0-1.84-.35-2.69.42a1.84,1.84,0,0,1-1.51,0c-2.75-1-5.59-.32-8.38-.47a4.82,4.82,0,0,1-2.39-.54c-.44-.26-.93-.67-1.36.08a.81.81,0,0,1-.85.43c-1.92-.3-3.92.59-5.79-.48-.46-.27-.81.46-1.06.43-2.32-.25-4.5.88-6.82.57-.58-.08-1-.76-.72-1.24a7.17,7.17,0,0,1,.86-.95c.63-.67,1.49-1.2,1.22-2.37-.2-.88,1.41-1.1,1-1.87a2.27,2.27,0,0,1-.41-1.89c.41-1,.91-2,0-3a.5.5,0,0,1,.05-.48c.72-.59,1.27-1.16.12-1.85-.23-.14-.16-.19,0-.38,1.58-2.22.66-4.75.81-7.15,0-.23.07-5.12.2-5.26.65-.72.26-1.24-.05-2s.16-2-.14-2.81-.57-1.48.3-2.1c.42-.31.32-.65,0-1.07a8.34,8.34,0,0,1-1.32-5.7c.1-1.29,0-2.61,0-3.9a4.33,4.33,0,0,0-1.11-3.2c-.64-.77-.62-1.2.2-1.58a4.87,4.87,0,0,0,1.6-1.15,1.32,1.32,0,0,1,1.32-.59c.68.16,1.08-.26,1.55-.67a2.26,2.26,0,0,1,2.47.2.84.84,0,0,1,.2.7c0,.78,0,1.56,0,2.54"></path> <path class="cls-1" d="M214.66,394.22a4.51,4.51,0,0,1-.71,0c-1-.2-1.44-1.47-2.7-1.06-.93.3-1.76-.3-2.54-.72-.31-.17-.61-.46-.89-.23-1.59,1.27-3.57,1-5.38,1.48a2.18,2.18,0,0,0-.64.34c-1.62.92-3.22,1.89-3.78,3.82a23.09,23.09,0,0,0-.33,2.56c-.16,1,.46,2.07-.48,2.93a.57.57,0,0,0,.13.69c1.15,1.16,1,2.66.84,4.05-.2,1.9.69,3.63.61,5.52,0,1-.73,1.84-.73,2.86,0,.12-.81.25-.8.37,0,.42.5.22.75.37,1,.54.74,1.47.71,2.3a2,2,0,0,1-1.57,1.78,15,15,0,0,0-3.83,1.47c-.6.42-1.65-.49-1.32-1.25.76-1.74.35-3.51.47-5.27,0-.36,0-.65.54-.67.65,0,.58-.46.39-.89a14.47,14.47,0,0,1-.88-4c-.21-1.5-.13-1.55,1.09-3.68.4-.71.87-1.08-.36-1.32a1.09,1.09,0,0,1-.78-1.2c.3-2.09-.57-4.26.52-6.29.35-.66-.83-.9-.51-1.61s-.41-1.14-.27-1.76-.33-1.1-.55-1.62a2.16,2.16,0,0,1,.46-2.51c1-1.21,2.55-1.5,3.71-2.48s2.31,0,2.39,1.46c0,.18,0,.35,0,.52.07,2,.54,2.32,2.37,1.47L206,389a2.83,2.83,0,0,1,1.87-.53c1.36.28,2.56-.87,3.95-.52.48.12,1-.16,1.46.25a2.31,2.31,0,0,0,2.32.31c.81-.2,2.49.95,2.87,1.79.06.14.09.41,0,.5-1.08,1.12-2.18,2.23-3.31,3.31-.15.14-.48.08-.55.09"></path> <path class="cls-1" d="M367.29,368.72c1,.75,2.42.5,3.76.5.52,0,.38.42.55.66.7,1,.57,2.4,1.54,3.27a12.19,12.19,0,0,0,2,1.43,35.62,35.62,0,0,1,5.23,2.45c1.09.61,1.53,1.41,1,2.4a10.26,10.26,0,0,0-1,2.46c-.17.72-1.19,1.17-1,2.19,0,.21-.43.34-.64.23-1.69-.88-3.91-1.07-4.54-3.38-1.06-.76-1.61-2-2.7-2.77a9.35,9.35,0,0,1-2.77-2.68c-.26-.44-.77-.93-.77.19-1.21.2-1.12,2.31-2.78,1.91-.21-.05-.25.43-.36.53-.77.66-1.19,1.86-2.59,1.55-.78-.18-.29,1-.82,1-.89,0-1.92.43-2.62-.55-.32-.44-.53-.37-1,0s-.82,0-1.24.11a1.43,1.43,0,0,1-1.53-.68c-.47-.78.39-1,.69-1.43.89-1.29,2.45-1.69,3.67-2.47a26,26,0,0,0,4.46-3.6,2.81,2.81,0,0,0,1-1.68,2.09,2.09,0,0,1,2.42-1.58"></path> <polygon class="cls-1" points="475.63 495.38 36.37 495.38 36.37 64.01 43.73 64.01 43.73 488 468.27 488 468.27 64.01 475.63 64.01 475.63 495.38"></polygon> <polygon class="cls-1" points="36.37 42.23 475.63 42.23 475.63 493.4 468.27 493.4 468.27 49.6 43.73 49.6 43.73 493.4 36.37 493.4 36.37 42.23"></polygon> </svg> 