<svg xmlns="http://www.w3.org/2000/svg" viewBox="0 0 300 100">
  <path fill="#010101" d="M10.67 74.54a11.06 11.06 0 001.12-1 7.74 7.74 0 013.65-1.3 5.78 5.78 0 012.87.7 2.62 2.62 0 011.49 2.36q0 2.49-3.06 4.63 5.85 1.93 5.85 5.76 0 3.15-3.35 5.07A12.29 12.29 0 0113 92.43a29.94 29.94 0 01-6.27-1A25.67 25.67 0 007 88.11v-3.3-3.29-4a8.41 8.41 0 00-1-3.74l-1-.18v-.41l4.72-1a7.53 7.53 0 01.95 2.35zm.16 15.36c1.05.52 1.79.87 2.22 1a7.87 7.87 0 002.32.65 8.78 8.78 0 002.36-1.26 3.09 3.09 0 001-2.41 5.9 5.9 0 00-1.86-4 11.71 11.71 0 00-3.7-2.65h-1.73l-.12-.35q5.68-1 5.69-3.34a3.13 3.13 0 00-1.67-2.47 5.06 5.06 0 00-2.92-1l-1.59 1.58zm32 1.46V92a10.06 10.06 0 01-3.47.56h-1.34a6.39 6.39 0 01-3.47-1.67c-.45-.36-1.4-1.29-2.85-2.77-.93-1-1.6-1.45-2-1.44h-.4l-.18 5-4 .81c0-1 0-2.79.07-5.26v-5.29c0-1.29 0-2.62-.07-4.26a12.11 12.11 0 00-.12-2.21 1.75 1.75 0 00-1.44-1.29v-.44l4.8-1.35c.15.48.34 1.22.58 2.22q4.36-2.89 5.72-2.89A6.5 6.5 0 0139.53 74a7.19 7.19 0 012.13 5 5.38 5.38 0 01-1.92 4.36 46.25 46.25 0 01-4.28 2.42 21.45 21.45 0 003.3 3.48c1.68 1.44 3.04 2.14 4.05 2.1zM37.71 80.3A6.6 6.6 0 0036 76.16 5 5 0 0032.19 74c-1.94 0-2.91 2.27-2.91 6.83v5h.93a9.22 9.22 0 005.13-1.11 4.81 4.81 0 002.37-4.42zm20.18-3c-2.58-2.36-4.64-3.55-6.2-3.55-1.38 0-2.47.91-3.26 2.72a10.9 10.9 0 00-.92 4.53l8 .19a7 7 0 003.16-.82l.3.6A12.92 12.92 0 0151.53 83h-3.91a8.8 8.8 0 001.22 4A9.44 9.44 0 0052 89.73a6.15 6.15 0 003 1 2.69 2.69 0 002.55-1.65c.06-.1.4-1.14 1-3.13l2.41.84c-.59 2-1.36 3.26-2.34 3.85a19.26 19.26 0 01-4.37 1.21 20.3 20.3 0 01-2.54.46 5.11 5.11 0 01-1.46-.31q-6.72-2.3-6.72-9.65 0-5.43 5.2-8.23c2.45-1.34 4.25-2 5.39-2q3.1 0 6.3 2.94zm16.32 13.5s0 .31.12 1l-3.81.56a6.66 6.66 0 00-.74-2.89L63.9 77.28a5.06 5.06 0 00-2.37-2.66v-.32l4.35-1.91 7.73 16.2q1.19-3.21 3.23-9.73c-.77-1.58-1.17-2.38-1.2-2.42a4.21 4.21 0 00-1.93-1.83v-.31l4.36-1.91 7.72 16.2 2.49-7.06a24.82 24.82 0 001.23-7.28c0-.44 0-.87-.05-1.3.42 0 .8.07 1.12.07s.78 0 1.6-.07a4.15 4.15 0 01-.24 1.35l-5.22 15a4.71 4.71 0 00-.33 1.48s0 .32.12 1l-3.84.56a6.77 6.77 0 00-.67-2.87l-4.31-8.92q-1 2.58-1.94 5.16a22.38 22.38 0 00-1.54 5.04zm24.88.84l-4 .74c0-1.28 0-3.19.06-5.74s0-4.47 0-5.76c0-2.81 0-4.76-.09-5.86S94.7 73.5 94 73.56V73l5.21-.77zm21.36-.77v.61l-2 .42a9.46 9.46 0 01-2 .27c-.77 0-1.15-.4-1.15-1.2a43.91 43.91 0 01.5-5.51 45.77 45.77 0 00.5-5.51 4.75 4.75 0 00-1.88-3.55 5.8 5.8 0 00-3.81-1.59c-1.16 0-2.1.94-2.81 2.84a14 14 0 00-.86 4.34l-.33 10-3.74.4c0-.92 0-2.69.1-5.32.06-2.23.09-4 .09-5.33a22.87 22.87 0 00-.16-3.74 29.74 29.74 0 00-1.13-3.46h-.56l-.1-.57 4.47-1.25c.53 1.3 1 2.53 1.36 3.69q4.56-4 6.65-4a6 6 0 012.18.84 10.58 10.58 0 013.33 2.53 6.33 6.33 0 011.19 4 33 33 0 01-.52 4.88 33.35 33.35 0 00-.53 4.88c0 .7.2 1.14.6 1.3zm17.42-12.61a15.84 15.84 0 00-3-2.74 6.7 6.7 0 00-3.66-1.5 4 4 0 00-2.16.78 4.9 4.9 0 00-1.68 1.69 9 9 0 00-.74 4.14 13.12 13.12 0 001.25 6.22 8.63 8.63 0 002.35 2.65 5.42 5.42 0 003.21 1.33 3 3 0 002-1c.22-.22.72-.83 1.49-1.84v-2.21c0-1.8-.32-2.7-1-2.7h-.31v-.56L141 82v7.57a7.72 7.72 0 01-1.51 5.07 9.3 9.3 0 01-4.64 2.65l-.28-.51a4.24 4.24 0 002-1.79 5.75 5.75 0 00.47-2.6v-1.14-1.15c-2.54 1.42-4.5 2.14-5.88 2.14a8 8 0 01-3.6-1q-4.92-2.48-4.92-8.49a8.67 8.67 0 013.13-6.87 16.09 16.09 0 013.77-2.31 10.68 10.68 0 014.18-1.22 8.28 8.28 0 013.34.95 12 12 0 013 1.86zm25.55-1.37q-4-3-5.86-3.07a7 7 0 00-3.69 3.18 11.66 11.66 0 00-.84 5 9.89 9.89 0 002 5.93 8 8 0 005.15 3.44c1.45-.45 2.45-2.18 3-5.18l3.15.69q-.72 5.5-9.25 5.51a6.94 6.94 0 01-5.75-3 10.47 10.47 0 01-2.08-6.39 9.09 9.09 0 012.14-6.27 13.91 13.91 0 015.72-3.55c.66-.21 1.63-.57 2.92-1.09a13.51 13.51 0 015.89 2.88zm24 5.15q0 7.61-8.06 9.81a14.66 14.66 0 01-3.09.62 5.22 5.22 0 01-1.34-.29 9.43 9.43 0 01-5.1-3.47 9.88 9.88 0 01-1.8-5.93q0-5.7 5.34-8.69a27.36 27.36 0 012.6-1.23 9.56 9.56 0 012.58-.86 8.08 8.08 0 013.5 1 10.84 10.84 0 013 2.1 9.69 9.69 0 012.38 6.9zm-7.55 8.76a4.17 4.17 0 003.13-2.69 10.09 10.09 0 00.8-4.26 10.63 10.63 0 00-1.21-5.41 9 9 0 00-4.23-3.56 7.39 7.39 0 00-3-.83c-1.28 0-2.23 1-2.87 2.9a14.27 14.27 0 00-.68 4.48q0 4.35 1.91 6.4c1.22 1.23 3.28 2.17 6.16 2.92zM194 75.53a17.13 17.13 0 015.64-3c1.38.55 2.29 1 2.74 1.19a7.71 7.71 0 012.24 2 20.54 20.54 0 012.85-2.09 8.4 8.4 0 013.4-.92 10.08 10.08 0 014.43 2.55 6.92 6.92 0 011.59 4.77 37.14 37.14 0 01-.4 4.55 37.3 37.3 0 00-.4 4.55 2.64 2.64 0 00.42 1.61l.88.18v.44l-2.19.45a10.66 10.66 0 01-2.2.3c-.53 0-.79-.77-.79-2.33a37.81 37.81 0 01.45-4.82 37.63 37.63 0 00.44-4.84 4.9 4.9 0 00-1.58-3.72 5.43 5.43 0 00-3.85-1.4 6 6 0 00-.93.07l-1.46 2.23a8.24 8.24 0 01.23 2.72q0 .52-.44 11.76l-3.77.48c0-.74.08-2.47.18-5.18.06-2.13.1-3.85.1-5.17a13.77 13.77 0 00-.58-4.71 3.56 3.56 0 00-3.62-2.46A3.37 3.37 0 00196 75l-1.7 3v1.42q0 .32-.21 12l-3.81.78V79.78a15 15 0 00-.85-4.87l-.88-.54-.06-.44 4.3-1.42a15.54 15.54 0 011.21 3.02zm30.2 23.52l-3.71 1V79.3a14.42 14.42 0 00-.29-2.72c-.26-1.37-.6-2.09-1-2.16a3.06 3.06 0 00-.47 0l-.16-.54 4.77-1.35 1 3.28a14.94 14.94 0 013.15-2.39A8 8 0 01231 72a6.31 6.31 0 013.85 1.65 10.42 10.42 0 012.77 3.23 9.07 9.07 0 011 4.37 11.79 11.79 0 01-1.32 5.63 10.38 10.38 0 01-3.79 3.52 11.28 11.28 0 01-4.86 1.89h-.32c-.94.06-2.27-.46-4-1.55zm.37-11.52c.72 1.16 2.36 2.34 4.91 3.52h.26c1.81 0 3.18-1 4.13-3A12.89 12.89 0 00235 82.6q0-5.41-4.14-7.79a4.82 4.82 0 00-2.18-.77 2.37 2.37 0 00-1.16.26 5.26 5.26 0 00-2.39 2.47 9 9 0 00-.52 3.44zm28.42 5a29.6 29.6 0 01-2.55-3.68q-5.59 3.44-8 3.44a3.22 3.22 0 01-2.23-1.14 3.27 3.27 0 01-1.12-2.25q0-3.9 8.71-7.55c-.26-1-.72-2.53-1.39-4.51a2.77 2.77 0 00-1-1.26l-1.34-.78-1.67 1.06-.4-.55c1.09-.95 1.78-1.53 2.09-1.73a4.43 4.43 0 012.44-1c1.68 0 3.05 1.56 4.09 4.67l2.81 8.39a20.66 20.66 0 002.65 4.71zm-10.52-5.95c0 1.19.83 2.46 2.47 3.83a5.29 5.29 0 003.07-1 3.33 3.33 0 001.61-2.65L248.33 83a8.46 8.46 0 00-3.7.83c-1.44.68-2.16 1.61-2.16 2.79zm33.32 4.2v.61l-2 .42a9.3 9.3 0 01-2 .27 1 1 0 01-1.16-1.2 45.94 45.94 0 01.5-5.51 43.76 43.76 0 00.5-5.51 4.74 4.74 0 00-1.87-3.55 5.8 5.8 0 00-3.76-1.55c-1.16 0-2.1.94-2.81 2.84a14 14 0 00-.86 4.34L262 92l-3.74.4c0-.92 0-2.69.11-5.32.06-2.23.09-4 .09-5.33a22.52 22.52 0 00-.2-3.67 29 29 0 00-1.12-3.46h-.56l-.11-.57 4.48-1.25q.79 1.95 1.35 3.69c3.05-2.66 5.26-4 6.66-4a6 6 0 012.17.84 10.52 10.52 0 013.34 2.53 6.39 6.39 0 011.19 4 32 32 0 01-.53 4.88 33 33 0 00-.52 4.88c0 .7.2 1.14.6 1.3zm4.34 5.33l3.3-1.24c0 1.32.35 2 1 2s1.72-1.69 2.79-5.09l-2.11.19q.09-.85.09-1.14 0-.73-2.86-6.61l-3.48-7a5 5 0 00-2.37-2.67v-.25l4.35-1.91 7.73 16.2q1.26-3.51 2.51-7a24.31 24.31 0 001.21-7.24c0-.45 0-.91-.05-1.38A17.21 17.21 0 00295 73a3.9 3.9 0 01-.25 1.35l-5.21 15c-.42 1.27-.84 2.52-1.26 3.78a12.54 12.54 0 01-2 3.7 4.25 4.25 0 01-3.3 1.69 3.17 3.17 0 01-1.89-.64 2.06 2.06 0 01-.96-1.73zm-221.49-48V17.86l-9.94.67 6.16-4.08 11.89-.67V54.3l-8.11 3.32zm78.42-17c0-7.44 5.7-13.25 5.7-13.25H156c15.84 0 19.95-5 19.95-5a96.26 96.26 0 01-14.29.89c-9.69 0-21.7-.57-26.1-1.06l1.35-2c-3.3 0-12.71 6.36-12.71 6.36 0 .46 3.11.6 12.63.77 0 0-8.44 6.28-8.44 13.67 0 2 .51 10.88 3 14.12a33.16 33.16 0 008.72 7.49c7 4.39 11.23 5 13.93 5 3.93 0 9-2.07 13.67-5.09a28.55 28.55 0 004.29-3.18c.73-.69 1.26-1.56 1-1.78s-1.21.42-1.56.68c-5.19 4-9.14 4.11-10.05 4.11-2.21 0-6.1-.47-12.91-4.2-10.67-5.86-11.42-9.74-11.42-17.53zm83.54 6.31c10.41 3.43 15.87 4.1 15.87 11.26 0 1.13-.22 1.6-.37 1.72-.86.43-2.78 1.36-9.53 1.36s-16.83-2.6-16.83-4.17c0-.64 1.19-1.61 1.19-1.61l-1-.77s-8.71 5.45-8.71 7.32c0 1.7 12 5.37 20.83 5.37 7.52 0 8 .19 16.55-5.4 7.19-4.72 7.64-5.78 7.64-8.19 0-6.18-6.27-9.73-17.75-13.28-14.21-4.39-16.15-4.77-16.15-7.73 0-4.68 2.3-4.43 9.55-4.43 6.47 0 16.47 1.56 16.47 3.13a3.9 3.9 0 01-.67 1.48c-.2.35.14.67.44.47s8.53-5.8 8.53-7.27c0-1.69-3-3.55-17.3-3.55-8.79 0-9.31.81-15.08 4.17s-9.32 2.55-10.12 3.58c-.52.67-.43 3.37-.43 5.12-.01 5.31.62 6.06 16.87 11.42zM291.71 33c0 16.74-8.41 23.91-8.41 23.91l1.81.73S300 48.29 300 33c0-15.61-14.18-19.73-18.87-19.73-3.14.08-18.43 5.5-18.43 5.5V.17l-11.93.67-6.15 4.08 9.93-.66-.07 30.64v22.72l8.23-3.32V26s15.32-6.42 18.17-6.42c6.98.04 10.83 6.73 10.83 13.42zM57.12 5.72l5.47 5.47a.15.15 0 00.21 0l5.47-5.47a.14.14 0 000-.21L62.8 0a.17.17 0 00-.21 0l-5.47 5.51a.17.17 0 000 .21zm129.33 42.43V17.86l-9.94.67 6.15-4.08 11.89-.67V54.3l-8.1 3.32zm-1.52-42.43l5.46 5.47a.14.14 0 00.21 0l5.47-5.47a.15.15 0 000-.21L190.6 0a.17.17 0 00-.21 0l-5.46 5.47a.14.14 0 000 .25zm-86.78 7.59a41.71 41.71 0 00-4.91.29 47.85 47.85 0 01-6.74 4.16 45.3 45.3 0 01-9.35 3.12 15.16 15.16 0 00-4 10.65c0 3.58.51 10.88 3 14.12 3 3.93 13.47 12.46 22.66 12.46 3.92 0 9-2.07 13.66-5.09 3.48-2.19 5.38-4 5.38-4.82a.21.21 0 00-.24-.22c-1 0-5.62 4.86-11.42 4.86-2.22 0-6.11-.47-12.91-4.2-10.7-5.86-11.46-9.74-11.46-17.53a20.77 20.77 0 011.67-7.93c.9-2.14 2.27-4.9 9.22-4.9 8 0 21.53.79 21.53 5.62a12.53 12.53 0 01-.61 3c0 .11.11.17.24.17.59 0 6.7-7.09 6.7-8.83s-5.24-4.93-22.42-4.93zm-81.62 41l-8.19 3.31v-39.7L0 18.45l5.47-4.11S18.73 13 29.86 13c12 0 18.81 7.71 18.81 15.56 0 6.83-6.55 12.32-17.68 12.32a27.7 27.7 0 01-12-3.19 49.91 49.91 0 008.31.66c2.82 0 12.73-3.37 12.73-10.65 0-5.46-2-10.25-13.4-10.25H16.5z"/>
</svg>
